<?xml version="1.0" encoding="UTF-8"?>
<svg version="1.1" xmlns="http://www.w3.org/2000/svg" width="134" height="205">
<path d="M0 0 C0.99 0 1.98 0 3 0 C3 0.66 3 1.32 3 2 C4.32 2 5.64 2 7 2 C7 1.34 7 0.68 7 0 C8.32 0 9.64 0 11 0 C11 0.99 11 1.98 11 3 C12.175625 3.1546875 12.175625 3.1546875 13.375 3.3125 C16 4 16 4 18 7 C18.99 7.33 19.98 7.66 21 8 C21 11.66666667 21 15.33333333 21 19 C21.2475 19.763125 21.495 20.52625 21.75 21.3125 C22 24 22 24 20.3125 26.8125 C18 29 18 29 14 29 C14 29.66 14 30.32 14 31 C14.99 31 15.98 31 17 31 C17 31.66 17 32.32 17 33 C16.01 33.495 16.01 33.495 15 34 C15 34.99 15 35.98 15 37 C13.68 37 12.36 37 11 37 C10.7525 37.721875 10.505 38.44375 10.25 39.1875 C8.85009408 42.33728832 7.40439949 44.52690339 5 47 C3.33805547 47.35613097 1.671549 47.69208308 0 48 C-0.70151152 49.3153341 -1.36525925 50.65117592 -2 52 C-4.93973224 54.11057699 -6.34648137 55 -10 55 C-10.33 55.99 -10.66 56.98 -11 58 C-12.32 58 -13.64 58 -15 58 C-17.79197732 60.29182272 -17.79197732 60.29182272 -20 63 C-20 65.6465335 -19.01860366 67.5808163 -18 70 C-17.01 70 -16.02 70 -15 70 C-15 70.99 -15 71.98 -15 73 C-13.8553125 73.185625 -13.8553125 73.185625 -12.6875 73.375 C-10 74 -10 74 -7 76 C-4.88719655 76.63292383 -4.88719655 76.63292383 -3 77 C-3 77.66 -3 78.32 -3 79 C-2.34 79 -1.68 79 -1 79 C-1 78.34 -1 77.68 -1 77 C-0.34 77 0.32 77 1 77 C1 77.66 1 78.32 1 79 C2.98 79.99 2.98 79.99 5 81 C4.67 83.31 4.34 85.62 4 88 C-2.75 89.125 -2.75 89.125 -5 88 C-5 88.66 -5 89.32 -5 90 C-8.78187881 91.83691257 -10.94568308 92.15837626 -15 91 C-15.33 89.35 -15.66 87.7 -16 86 C-16.66 86 -17.32 86 -18 86 C-18 86.99 -18 87.98 -18 89 C-18.99 89 -19.98 89 -21 89 C-21.33 88.34 -21.66 87.68 -22 87 C-24.02463255 86.34786708 -24.02463255 86.34786708 -26 86 C-26 85.34 -26 84.68 -26 84 C-27.65 84 -29.3 84 -31 84 C-31 83.34 -31 82.68 -31 82 C-31.99 82 -32.98 82 -34 82 C-34 81.34 -34 80.68 -34 80 C-34.99 79.67 -35.98 79.34 -37 79 C-37 77.68 -37 76.36 -37 75 C-37.99 74.67 -38.98 74.34 -40 74 C-39.505 72.515 -39.505 72.515 -39 71 C-39.99 70.505 -39.99 70.505 -41 70 C-41.59765625 68.07421875 -41.59765625 68.07421875 -42.0625 65.6875 C-42.29646484 64.51767578 -42.29646484 64.51767578 -42.53515625 63.32421875 C-42.68855469 62.55722656 -42.84195313 61.79023437 -43 61 C-43.20625 60.28070313 -43.4125 59.56140625 -43.625 58.8203125 C-44 57 -44 57 -42.9375 55.1875 C-41.48617046 51.8010644 -42.83746572 49.35843238 -44 46 C-46.2477975 48.05233685 -47.0022242 49.00667261 -48 52 C-48.99 52.495 -48.99 52.495 -50 53 C-51.80873708 56.1652899 -52.0906197 57.57985413 -51.3125 61.1875 C-50.17628006 64.25761323 -50.17628006 64.25761323 -47 66 C-47.33 66.99 -47.66 67.98 -48 69 C-50 67.625 -50 67.625 -52 66 C-52 65.34 -52 64.68 -52 64 C-59.98279576 63.51782426 -59.98279576 63.51782426 -67 67 C-67.66 67 -68.32 67 -69 67 C-71.61895048 71.77573323 -70.83119431 75.84434881 -70 81 C-70 80.34 -70 79.68 -70 79 C-70 77.33333333 -70 75.66666667 -70 74 C-68.02 73.505 -68.02 73.505 -66 73 C-66 71.68 -66 70.36 -66 69 C-62.49744191 67.24872096 -58.81244887 67.3152078 -55 68 C-51.32020569 71.14315764 -50.18003459 73.14137351 -49.1875 77.875 C-49.125625 78.90625 -49.06375 79.9375 -49 81 C-48.34 79.35 -47.68 77.7 -47 76 C-45.515 76.495 -45.515 76.495 -44 77 C-44.20496094 77.54269531 -44.40992187 78.08539063 -44.62109375 78.64453125 C-44.89050781 79.35996094 -45.15992187 80.07539062 -45.4375 80.8125 C-45.70433594 81.52019531 -45.97117187 82.22789063 -46.24609375 82.95703125 C-46.86225186 84.62672396 -47.43719235 86.31157704 -48 88 C-47.01 87.505 -47.01 87.505 -46 87 C-38.94059406 86.43069307 -38.94059406 86.43069307 -35.625 88.4375 C-33.32127055 92.07030414 -32.68328895 95.79237856 -32 100 C-31.319375 99.484375 -30.63875 98.96875 -29.9375 98.4375 C-26.07364271 96.54667622 -24.09918272 96.80751048 -20 98 C-16.38942693 101.32552783 -15.44928198 104.17021867 -15 109 C-14.01 108.34 -13.02 107.68 -12 107 C-7.04234439 106.54095781 -3.94630826 106.86616697 0 110 C1.19209255 113.57627765 1.27523834 116.95838682 1.4375 120.6875 C1.72263396 126.47762842 2.23856936 132.13649718 3.0625 137.875 C5.42665568 156.05392438 5.95175438 178.63600649 -4.6484375 194.4609375 C-10.03875849 201.25934234 -16.36045762 204.32151756 -25.01147461 205.36230469 C-28.08066482 205.49775739 -31.11617403 205.49787483 -34.1875 205.4375 C-35.21552734 205.44458984 -36.24355469 205.45167969 -37.30273438 205.45898438 C-46.7603525 205.38032216 -53.27263522 203.38294373 -60.25 196.80078125 C-70.68757951 186.06032555 -71.17784646 170.15208956 -71.1875 156 C-71.19974609 155.08605469 -71.21199219 154.17210937 -71.22460938 153.23046875 C-71.23655868 147.4071735 -70.76978115 141.75010798 -70.015625 135.98046875 C-68.89650666 127.25509864 -68.59437523 118.60349794 -68.57446289 109.81176758 C-68.56232188 107.27528752 -68.51268256 104.74106641 -68.46289062 102.20507812 C-68.45344765 100.57032409 -68.4462025 98.93555553 -68.44140625 97.30078125 C-68.42187393 96.55387527 -68.40234161 95.8069693 -68.38221741 95.03742981 C-68.43263639 89.18510968 -70.15858537 87.05742914 -74 83 C-75.51951492 78.15048431 -75.97649331 73.25018024 -73.921875 68.515625 C-70.96262634 64.24807693 -68.24362263 61.99878526 -63 61 C-63 60.34 -63 59.68 -63 59 C-62.01 58.505 -62.01 58.505 -61 58 C-60.690625 57.175 -60.38125 56.35 -60.0625 55.5 C-59.711875 54.675 -59.36125 53.85 -59 53 C-57.515 52.505 -57.515 52.505 -56 52 C-55.27095914 50.35965807 -54.61344757 48.68698082 -54 47 C-52.5625 44.1875 -52.5625 44.1875 -51 42 C-50.01 42 -49.02 42 -48 42 C-48 41.01 -48 40.02 -48 39 C-47.01 39 -46.02 39 -45 39 C-44.7834375 37.824375 -44.7834375 37.824375 -44.5625 36.625 C-44 34 -44 34 -43 32 C-42.01 31.67 -41.02 31.34 -40 31 C-40 30.34 -40 29.68 -40 29 C-39.34 29 -38.68 29 -38 29 C-38 28.34 -38 27.68 -38 27 C-37.01 27 -36.02 27 -35 27 C-35.495 25.02 -35.495 25.02 -36 23 C-35.38125 22.938125 -34.7625 22.87625 -34.125 22.8125 C-33.42375 22.544375 -32.7225 22.27625 -32 22 C-31.67 21.175 -31.34 20.35 -31 19.5 C-30.67 18.675 -30.34 17.85 -30 17 C-27.9375 16.375 -27.9375 16.375 -26 16 C-25.67 15.01 -25.34 14.02 -25 13 C-24.34 12.67 -23.68 12.34 -23 12 C-23 11.34 -23 10.68 -23 10 C-22.34 10 -21.68 10 -21 10 C-21 9.34 -21 8.68 -21 8 C-14.5 5 -14.5 5 -10 5 C-9.67 4.01 -9.34 3.02 -9 2 C-2.25 0.875 -2.25 0.875 0 2 C0 1.34 0 0.68 0 0 Z M8 4 C8.33 4.66 8.66 5.32 9 6 C9.33 5.34 9.66 4.68 10 4 C9.34 4 8.68 4 8 4 Z M-9 6 C-9 6.66 -9 7.32 -9 8 C-8.34 7.67 -7.68 7.34 -7 7 C-7.66 6.67 -8.32 6.34 -9 6 Z M-16 8 C-15.67 8.66 -15.34 9.32 -15 10 C-14.67 9.34 -14.34 8.68 -14 8 C-14.66 8 -15.32 8 -16 8 Z M-13 10 C-13 10.66 -13 11.32 -13 12 C-14.65 12 -16.3 12 -18 12 C-18 12.99 -18 13.98 -18 15 C-18.66 15 -19.32 15 -20 15 C-20.33 16.65 -20.66 18.3 -21 20 C-21.99 19.67 -22.98 19.34 -24 19 C-24.66 19.66 -25.32 20.32 -26 21 C-25.34 21 -24.68 21 -24 21 C-24 21.99 -24 22.98 -24 24 C-24.5775 23.649375 -25.155 23.29875 -25.75 22.9375 C-28.35801776 21.85082593 -29.39417629 22.06934867 -32 23 C-31.154375 23.825 -30.30875 24.65 -29.4375 25.5 C-27.76276124 27.48224728 -27.03888023 28.53597291 -26.8203125 31.14453125 C-27.0625 33.3125 -27.0625 33.3125 -28 37 C-28.66 37.33 -29.32 37.66 -30 38 C-29.34 38 -28.68 38 -28 38 C-28.33 38.99 -28.66 39.98 -29 41 C-28.67 41.66 -28.34 42.32 -28 43 C-29.485 43.495 -29.485 43.495 -31 44 C-30.01 44.66 -29.02 45.32 -28 46 C-28.99 48.475 -28.99 48.475 -30 51 C-28.68 51 -27.36 51 -26 51 C-25.67 52.65 -25.34 54.3 -25 56 C-21.64566891 55.05066101 -18.30753495 54.10251165 -15 53 C-15 52.34 -15 51.68 -15 51 C-14.34 51 -13.68 51 -13 51 C-12.67 50.34 -12.34 49.68 -12 49 C-10.15234375 48.1484375 -10.15234375 48.1484375 -7.9375 47.375 C-7.20402344 47.11460938 -6.47054687 46.85421875 -5.71484375 46.5859375 C-5.14894531 46.39257812 -4.58304688 46.19921875 -4 46 C-4 45.01 -4 44.02 -4 43 C-3.34 43 -2.68 43 -2 43 C0.81168323 40.77408411 1.90364523 38.37339931 3 35 C3 34.01 3 33.02 3 32 C3.99 32 4.98 32 6 32 C6.66 29.03 7.32 26.06 8 23 C7.34 23 6.68 23 6 23 C6 22.34 6 21.68 6 21 C6.99 20.67 7.98 20.34 9 20 C8.01 20 7.02 20 6 20 C6.226875 19.401875 6.45375 18.80375 6.6875 18.1875 C6.790625 17.465625 6.89375 16.74375 7 16 C5.72943475 14.31267956 5.72943475 14.31267956 4 13 C3.34 12.34 2.68 11.68 2 11 C1.01 11.33 0.02 11.66 -1 12 C-1 11.34 -1 10.68 -1 10 C-7.06050614 8.9187609 -7.06050614 8.9187609 -13 10 Z M3 9 C4 11 4 11 4 11 Z M-34 29 C-33 31 -33 31 -33 31 Z M-34 33 C-33 35 -33 35 -33 35 Z M-38 35 C-38.33 35.66 -38.66 36.32 -39 37 C-38.34 37 -37.68 37 -37 37 C-37.33 36.34 -37.66 35.68 -38 35 Z M-37 37 C-37 37.99 -37 38.98 -37 40 C-36.01 39.67 -35.02 39.34 -34 39 C-34.33 38.34 -34.66 37.68 -35 37 C-35.66 37 -36.32 37 -37 37 Z M-45 39 C-45.33 40.32 -45.66 41.64 -46 43 C-45.34 43 -44.68 43 -44 43 C-44 42.34 -44 41.68 -44 41 C-43.01 40.67 -42.02 40.34 -41 40 C-42.32 39.67 -43.64 39.34 -45 39 Z M-39 40 C-38.67 40.66 -38.34 41.32 -38 42 C-37.67 41.34 -37.34 40.68 -37 40 C-37.66 40 -38.32 40 -39 40 Z M3 41 C3.33 41.66 3.66 42.32 4 43 C4.66 42.34 5.32 41.68 6 41 C5.01 41 4.02 41 3 41 Z M-43 42 C-43 42.66 -43 43.32 -43 44 C-42.34 43.67 -41.68 43.34 -41 43 C-41.66 42.67 -42.32 42.34 -43 42 Z M-40 43 C-40.33 44.65 -40.66 46.3 -41 48 C-40.01 47.67 -39.02 47.34 -38 47 C-38.66 45.68 -39.32 44.36 -40 43 Z M-34 48 C-34.33 49.65 -34.66 51.3 -35 53 C-33.68 53.33 -32.36 53.66 -31 54 C-31.33 52.02 -31.66 50.04 -32 48 C-32.66 48 -33.32 48 -34 48 Z M-7 48 C-6 50 -6 50 -6 50 Z M-54 53 C-53 55 -53 55 -53 55 Z M-36 53 C-35 56 -35 56 -35 56 Z M-35 56 C-34.67 56.66 -34.34 57.32 -34 58 C-32.68 57.67 -31.36 57.34 -30 57 C-30 56.34 -30 55.68 -30 55 C-32.21081851 54.89459074 -32.21081851 54.89459074 -35 56 Z M-27 58 C-27.33 59.32 -27.66 60.64 -28 62 C-27.34 62 -26.68 62 -26 62 C-26.33 60.68 -26.66 59.36 -27 58 Z M-20 58 C-19 60 -19 60 -19 60 Z M-41 61 C-37 62 -37 62 -37 62 Z M-27 67 C-26.01 67.495 -26.01 67.495 -25 68 C-24.67 68.99 -24.34 69.98 -24 71 C-24 69.68 -24 68.36 -24 67 C-24.99 67 -25.98 67 -27 67 Z M-28 68 C-27 71 -27 71 -27 71 Z M-29 72 C-28 74 -28 74 -28 74 Z M-20 72 C-19 74 -19 74 -19 74 Z M-26 74 C-25 77 -25 77 -25 77 Z M-63 78 C-63.2502157 81.08365871 -63.2502157 81.08365871 -63 84 C-60.36 84 -57.72 84 -55 84 C-54.67164344 80.32728956 -54.67164344 80.32728956 -56.375 77.1875 C-59.27662706 75.06708022 -59.99554944 75.99703296 -63 78 Z M-31 76 C-30.67 77.32 -30.34 78.64 -30 80 C-29.67 79.01 -29.34 78.02 -29 77 C-29.66 76.67 -30.32 76.34 -31 76 Z M-18 77 C-17.67 77.99 -17.34 78.98 -17 80 C-16.34 79.67 -15.68 79.34 -15 79 C-15.99 78.34 -16.98 77.68 -18 77 Z M-29 79 C-29.33 79.66 -29.66 80.32 -30 81 C-28.68 81.33 -27.36 81.66 -26 82 C-26 81.34 -26 80.68 -26 80 C-26.99 79.67 -27.98 79.34 -29 79 Z M-6 79 C-6.33 80.32 -6.66 81.64 -7 83 C-6.34 83 -5.68 83 -5 83 C-5.33 81.68 -5.66 80.36 -6 79 Z M-15 82 C-14.67 82.66 -14.34 83.32 -14 84 C-13.34 83.34 -12.68 82.68 -12 82 C-12.99 82 -13.98 82 -15 82 Z M-8 84 C-7.67 84.66 -7.34 85.32 -7 86 C-6.34 85.67 -5.68 85.34 -5 85 C-5.99 84.67 -6.98 84.34 -8 84 Z " fill="#AAA8AE" transform="translate(75,0)"/>
<path d="M0 0 C0.33 0 0.66 0 1 0 C2.18135474 6.48349807 2.11322974 12.86214507 2.0625 19.4375 C2.05798828 20.55060547 2.05347656 21.66371094 2.04882812 22.81054688 C2.03711193 25.54042101 2.02070699 28.27018174 2 31 C2.99 30.67 3.98 30.34 5 30 C7.01779311 29.90525114 9.0385784 29.86927784 11.05859375 29.8671875 C12.24904297 29.86589844 13.43949219 29.86460938 14.66601562 29.86328125 C15.91060547 29.86714844 17.15519531 29.87101562 18.4375 29.875 C20.29858398 29.86919922 20.29858398 29.86919922 22.19726562 29.86328125 C23.38900391 29.86457031 24.58074219 29.86585937 25.80859375 29.8671875 C26.89970459 29.86831543 27.99081543 29.86944336 29.11499023 29.87060547 C31.5913723 29.98167279 33.64092233 30.28088657 36 31 C36.31782317 32.47803204 36.62888865 33.95751712 36.9375 35.4375 C37.11152344 36.26121094 37.28554687 37.08492187 37.46484375 37.93359375 C40.78568002 56.96174317 41.50878017 81.80442771 30.3515625 98.4609375 C25.5512941 104.51515356 20.64416365 107.7201685 13 109 C6.66531118 109.40397787 0.33812323 109.23644812 -6 109 C-6 108.67 -6 108.34 -6 108 C-4.02 108 -2.04 108 0 108 C-0.00523682 106.94611084 -0.01047363 105.89222168 -0.01586914 104.80639648 C-0.03405784 100.87216043 -0.04548245 96.93792805 -0.05493164 93.00366211 C-0.05994027 91.30541355 -0.06674906 89.60716926 -0.07543945 87.90893555 C-0.08765773 85.45881085 -0.09326314 83.0087435 -0.09765625 80.55859375 C-0.10281754 79.80726669 -0.10797882 79.05593964 -0.11329651 78.28184509 C-0.11377072 73.76002854 0.29428672 69.47855184 1 65 C1.30073238 56.95983142 1.03840849 48.96100805 0.5 40.9375 C-0.4067064 27.32441929 -0.08452282 13.63548204 0 0 Z " fill="#A19EA5" transform="translate(40,96)"/>
<path d="M0 0 C0.99 0 1.98 0 3 0 C3 0.66 3 1.32 3 2 C4.32 2 5.64 2 7 2 C7 1.34 7 0.68 7 0 C8.32 0 9.64 0 11 0 C11 0.99 11 1.98 11 3 C11.78375 3.103125 12.5675 3.20625 13.375 3.3125 C16 4 16 4 18 7 C18.99 7.33 19.98 7.66 21 8 C21 11.66666667 21 15.33333333 21 19 C21.2475 19.763125 21.495 20.52625 21.75 21.3125 C22 24 22 24 20.3125 26.8125 C18 29 18 29 14 29 C14 29.66 14 30.32 14 31 C14.99 31 15.98 31 17 31 C17 31.66 17 32.32 17 33 C16.01 33.495 16.01 33.495 15 34 C15 34.99 15 35.98 15 37 C13.68 37 12.36 37 11 37 C10.7525 37.721875 10.505 38.44375 10.25 39.1875 C8.85009408 42.33728832 7.40439949 44.52690339 5 47 C3.33805547 47.35613097 1.671549 47.69208308 0 48 C-0.70151152 49.3153341 -1.36525925 50.65117592 -2 52 C-4.93973224 54.11057699 -6.34648137 55 -10 55 C-10.33 55.99 -10.66 56.98 -11 58 C-12.32 58 -13.64 58 -15 58 C-17.79197732 60.29182272 -17.79197732 60.29182272 -20 63 C-20 65.6465335 -19.01860366 67.5808163 -18 70 C-17.01 70 -16.02 70 -15 70 C-15 70.99 -15 71.98 -15 73 C-14.236875 73.12375 -13.47375 73.2475 -12.6875 73.375 C-10 74 -10 74 -7 76 C-4.88719655 76.63292383 -4.88719655 76.63292383 -3 77 C-3 77.66 -3 78.32 -3 79 C-2.34 79 -1.68 79 -1 79 C-1 78.34 -1 77.68 -1 77 C-0.34 77 0.32 77 1 77 C1 77.66 1 78.32 1 79 C2.32 79.66 3.64 80.32 5 81 C4.67 83.31 4.34 85.62 4 88 C-2.75 89.125 -2.75 89.125 -5 88 C-5 88.66 -5 89.32 -5 90 C-8.78187881 91.83691257 -10.94568308 92.15837626 -15 91 C-15.33 89.35 -15.66 87.7 -16 86 C-16.66 86 -17.32 86 -18 86 C-18 86.99 -18 87.98 -18 89 C-18.99 89 -19.98 89 -21 89 C-21.495 88.01 -21.495 88.01 -22 87 C-24.02463255 86.34786708 -24.02463255 86.34786708 -26 86 C-26 85.34 -26 84.68 -26 84 C-27.65 84 -29.3 84 -31 84 C-31 83.34 -31 82.68 -31 82 C-31.99 82 -32.98 82 -34 82 C-34 81.34 -34 80.68 -34 80 C-34.99 79.67 -35.98 79.34 -37 79 C-37 77.68 -37 76.36 -37 75 C-37.99 74.67 -38.98 74.34 -40 74 C-39.67 73.01 -39.34 72.02 -39 71 C-39.66 70.67 -40.32 70.34 -41 70 C-41.59765625 68.07421875 -41.59765625 68.07421875 -42.0625 65.6875 C-42.21847656 64.90761719 -42.37445313 64.12773438 -42.53515625 63.32421875 C-42.68855469 62.55722656 -42.84195313 61.79023437 -43 61 C-43.20496094 60.30519531 -43.40992187 59.61039063 -43.62109375 58.89453125 C-44 57 -44 57 -43 54 C-42.34 54 -41.68 54 -41 54 C-41 52.35 -41 50.7 -41 49 C-39.68 49 -38.36 49 -37 49 C-36.34 50.32 -35.68 51.64 -35 53 C-34.01 53 -33.02 53 -32 53 C-32.01160156 52.16855469 -32.02320313 51.33710937 -32.03515625 50.48046875 C-32.04869141 48.85044922 -32.04869141 48.85044922 -32.0625 47.1875 C-32.07410156 46.10855469 -32.08570313 45.02960937 -32.09765625 43.91796875 C-32 41 -32 41 -31 38 C-30.01 38 -29.02 38 -28 38 C-28 47 -28 47 -29 50 C-28.01 50.33 -27.02 50.66 -26 51 C-25.67 52.32 -25.34 53.64 -25 55 C-21.7 54.34 -18.4 53.68 -15 53 C-15 52.34 -15 51.68 -15 51 C-14.34 51 -13.68 51 -13 51 C-12.67 50.01 -12.34 49.02 -12 48 C-9.01540871 46.04457812 -7.73585209 46 -4 46 C-4 45.01 -4 44.02 -4 43 C-3.34 43 -2.68 43 -2 43 C-1.67 42.01 -1.34 41.02 -1 40 C-0.34 40 0.32 40 1 40 C1.144375 39.236875 1.28875 38.47375 1.4375 37.6875 C2 35 2 35 3 32 C3.99 32 4.98 32 6 32 C5.95875 31.071875 5.9175 30.14375 5.875 29.1875 C6 26 6 26 8 23 C7.34 23 6.68 23 6 23 C6.0825 22.113125 6.165 21.22625 6.25 20.3125 C5.94482878 16.26898131 4.87603114 14.79385882 2 12 C1.01 12 0.02 12 -1 12 C-1 11.34 -1 10.68 -1 10 C-4.96 10 -8.92 10 -13 10 C-13 10.66 -13 11.32 -13 12 C-14.65 12 -16.3 12 -18 12 C-18 12.99 -18 13.98 -18 15 C-18.66 15 -19.32 15 -20 15 C-20.33 16.65 -20.66 18.3 -21 20 C-21.99 20.33 -22.98 20.66 -24 21 C-24 21.99 -24 22.98 -24 24 C-27.76687864 24 -28.91190305 23.76462683 -32 22 C-31.25 19.5625 -31.25 19.5625 -30 17 C-27.9375 16.375 -27.9375 16.375 -26 16 C-25.67 15.01 -25.34 14.02 -25 13 C-24.34 12.67 -23.68 12.34 -23 12 C-23 11.34 -23 10.68 -23 10 C-22.34 10 -21.68 10 -21 10 C-21 9.34 -21 8.68 -21 8 C-14.5 5 -14.5 5 -10 5 C-9.67 4.01 -9.34 3.02 -9 2 C-2.25 0.875 -2.25 0.875 0 2 C0 1.34 0 0.68 0 0 Z M8 4 C8.33 4.66 8.66 5.32 9 6 C9.33 5.34 9.66 4.68 10 4 C9.34 4 8.68 4 8 4 Z M-9 6 C-9 6.66 -9 7.32 -9 8 C-8.34 7.67 -7.68 7.34 -7 7 C-7.66 6.67 -8.32 6.34 -9 6 Z M-16 8 C-15.67 8.66 -15.34 9.32 -15 10 C-14.67 9.34 -14.34 8.68 -14 8 C-14.66 8 -15.32 8 -16 8 Z M3 9 C4 11 4 11 4 11 Z M3 41 C3.33 41.66 3.66 42.32 4 43 C4.66 42.34 5.32 41.68 6 41 C5.01 41 4.02 41 3 41 Z M-7 48 C-6 50 -6 50 -6 50 Z M-35 56 C-34.67 56.66 -34.34 57.32 -34 58 C-32.68 57.67 -31.36 57.34 -30 57 C-30 56.34 -30 55.68 -30 55 C-32.21081851 54.89459074 -32.21081851 54.89459074 -35 56 Z M-27 58 C-27.33 59.32 -27.66 60.64 -28 62 C-27.34 62 -26.68 62 -26 62 C-26.33 60.68 -26.66 59.36 -27 58 Z M-20 58 C-19 60 -19 60 -19 60 Z M-41 61 C-37 62 -37 62 -37 62 Z M-27 67 C-26.01 67.495 -26.01 67.495 -25 68 C-24.67 68.99 -24.34 69.98 -24 71 C-24 69.68 -24 68.36 -24 67 C-24.99 67 -25.98 67 -27 67 Z M-28 68 C-27 71 -27 71 -27 71 Z M-29 72 C-28 74 -28 74 -28 74 Z M-20 72 C-19 74 -19 74 -19 74 Z M-26 74 C-25 77 -25 77 -25 77 Z M-31 76 C-30.67 77.32 -30.34 78.64 -30 80 C-29.67 79.01 -29.34 78.02 -29 77 C-29.66 76.67 -30.32 76.34 -31 76 Z M-18 77 C-17.67 77.99 -17.34 78.98 -17 80 C-16.34 79.67 -15.68 79.34 -15 79 C-15.99 78.34 -16.98 77.68 -18 77 Z M-29 79 C-29.33 79.66 -29.66 80.32 -30 81 C-28.68 81.33 -27.36 81.66 -26 82 C-26 81.34 -26 80.68 -26 80 C-26.99 79.67 -27.98 79.34 -29 79 Z M-6 79 C-6.33 80.32 -6.66 81.64 -7 83 C-6.34 83 -5.68 83 -5 83 C-5.33 81.68 -5.66 80.36 -6 79 Z M-15 82 C-14.67 82.66 -14.34 83.32 -14 84 C-13.34 83.34 -12.68 82.68 -12 82 C-12.99 82 -13.98 82 -15 82 Z M-8 84 C-7.67 84.66 -7.34 85.32 -7 86 C-6.34 85.67 -5.68 85.34 -5 85 C-5.99 84.67 -6.98 84.34 -8 84 Z " fill="#B56FB2" transform="translate(75,0)"/>
<path d="M0 0 C2.0625 0.4375 2.0625 0.4375 4 1 C4 1.66 4 2.32 4 3 C4.639375 3.28875 5.27875 3.5775 5.9375 3.875 C8 5 8 5 9 7 C8.55687149 10.47855877 8.01383316 14.02672017 5.4375 16.5 C3.31971899 18.70985844 3.57072302 21.05942813 3.31640625 23.9921875 C2.87770977 26.77601453 1.62700512 28.7363407 0 31 C-0.66 30.67 -1.32 30.34 -2 30 C-2 29.01 -2 28.02 -2 27 C-3.32 27 -4.64 27 -6 27 C-6.33 28.32 -6.66 29.64 -7 31 C-7.66 28.69 -8.32 26.38 -9 24 C-11.2477975 26.05233685 -12.0022242 27.00667261 -13 30 C-13.66 30.33 -14.32 30.66 -15 31 C-16.80873708 34.1652899 -17.0906197 35.57985413 -16.3125 39.1875 C-15.17628006 42.25761323 -15.17628006 42.25761323 -12 44 C-12.33 44.99 -12.66 45.98 -13 47 C-15 45.625 -15 45.625 -17 44 C-17 43.34 -17 42.68 -17 42 C-24.98279576 41.51782426 -24.98279576 41.51782426 -32 45 C-32.66 45 -33.32 45 -34 45 C-36.61895048 49.77573323 -35.83119431 53.84434881 -35 59 C-35 58.34 -35 57.68 -35 57 C-35 55.33333333 -35 53.66666667 -35 52 C-33.02 51.505 -33.02 51.505 -31 51 C-31 49.68 -31 48.36 -31 47 C-28.74015891 45.87007945 -27.20273513 45.70200044 -24.6875 45.5625 C-23.92824219 45.50191406 -23.16898438 45.44132812 -22.38671875 45.37890625 C-19.42248638 46.15028587 -17.93796184 47.5609968 -16.04905701 49.93449402 C-13.81014231 54.34273081 -14.52700177 59.364682 -14.73046875 64.1796875 C-14.77437492 65.93153854 -14.77437492 65.93153854 -14.81916809 67.71878052 C-14.91791295 71.4386628 -15.0522172 75.15628487 -15.1875 78.875 C-15.26081282 81.40097458 -15.33180334 83.9270177 -15.40039062 86.453125 C-15.57334881 92.63646413 -15.77549119 98.81832951 -16 105 C-16.99 105 -17.98 105 -19 105 C-19 92.46 -19 79.92 -19 67 C-21.97 67 -24.94 67 -28 67 C-28 79.21 -28 91.42 -28 104 C-29.98 104.99 -29.98 104.99 -32 106 C-32 93.13 -32 80.26 -32 67 C-33.32 66.34 -34.64 65.68 -36 65 C-39.67954219 61.14117618 -39.94264696 57.21079573 -40.2578125 52.0546875 C-39.90426112 47.86563935 -38.51958269 45.59646102 -35.76953125 42.4921875 C-33.36225268 40.46220866 -31.07487134 39.58568978 -28 39 C-28 38.34 -28 37.68 -28 37 C-27.01 36.505 -27.01 36.505 -26 36 C-25.690625 35.175 -25.38125 34.35 -25.0625 33.5 C-24.711875 32.675 -24.36125 31.85 -24 31 C-23.01 30.67 -22.02 30.34 -21 30 C-20.27095914 28.35965807 -19.61344757 26.68698082 -19 25 C-17.5625 22.1875 -17.5625 22.1875 -16 20 C-15.01 20 -14.02 20 -13 20 C-13 19.01 -13 18.02 -13 17 C-12.01 17 -11.02 17 -10 17 C-9.855625 16.21625 -9.71125 15.4325 -9.5625 14.625 C-9 12 -9 12 -8 10 C-7.01 9.67 -6.02 9.34 -5 9 C-5 8.34 -5 7.68 -5 7 C-4.34 7 -3.68 7 -3 7 C-3 6.34 -3 5.68 -3 5 C-2.01 5 -1.02 5 0 5 C-0.2784375 4.0409375 -0.2784375 4.0409375 -0.5625 3.0625 C-0.706875 2.381875 -0.85125 1.70125 -1 1 C-0.67 0.67 -0.34 0.34 0 0 Z M1 7 C2 9 2 9 2 9 Z M1 11 C2 13 2 13 2 13 Z M-3 13 C-3.33 13.66 -3.66 14.32 -4 15 C-3.34 15 -2.68 15 -2 15 C-2.33 14.34 -2.66 13.68 -3 13 Z M-2 15 C-2 15.99 -2 16.98 -2 18 C-1.01 17.67 -0.02 17.34 1 17 C0.67 16.34 0.34 15.68 0 15 C-0.66 15 -1.32 15 -2 15 Z M-10 17 C-10.33 18.32 -10.66 19.64 -11 21 C-10.34 21 -9.68 21 -9 21 C-9 20.34 -9 19.68 -9 19 C-8.01 18.67 -7.02 18.34 -6 18 C-7.32 17.67 -8.64 17.34 -10 17 Z M-4 18 C-3.67 18.66 -3.34 19.32 -3 20 C-2.67 19.34 -2.34 18.68 -2 18 C-2.66 18 -3.32 18 -4 18 Z M-8 20 C-8 20.66 -8 21.32 -8 22 C-7.34 21.67 -6.68 21.34 -6 21 C-6.66 20.67 -7.32 20.34 -8 20 Z M-5 21 C-5.33 22.65 -5.66 24.3 -6 26 C-5.01 25.67 -4.02 25.34 -3 25 C-3.66 23.68 -4.32 22.36 -5 21 Z M-19 31 C-18 33 -18 33 -18 33 Z M-28 56 C-28.2502157 59.08365871 -28.2502157 59.08365871 -28 62 C-25.36 62 -22.72 62 -20 62 C-19.67164344 58.32728956 -19.67164344 58.32728956 -21.375 55.1875 C-24.27662706 53.06708022 -24.99554944 53.99703296 -28 56 Z " fill="#B36BB0" transform="translate(40,22)"/>
<path d="M0 0 C3.61057307 3.32552783 4.55071802 6.17021867 5 11 C5.99 10.34 6.98 9.68 8 9 C12.95765561 8.54095781 16.05369174 8.86616697 20 12 C21.79505494 17.38516481 21 23.32353788 21 29 C9.78 29 -1.44 29 -13 29 C-13.061875 24.9575 -13.12375 20.915 -13.1875 16.75 C-13.21481201 15.48124023 -13.24212402 14.21248047 -13.27026367 12.90527344 C-13.27775635 11.90012695 -13.28524902 10.89498047 -13.29296875 9.859375 C-13.3086792 8.83295898 -13.32438965 7.80654297 -13.34057617 6.74902344 C-12.94830268 3.58271556 -12.22202688 2.25810191 -10 0 C-6.16652698 -1.27782434 -3.91272241 -0.96101954 0 0 Z " fill="#BCACBE" transform="translate(55,98)"/>
<path d="M0 0 C1.19044922 -0.00128906 2.38089844 -0.00257812 3.60742188 -0.00390625 C4.85201172 -0.00003906 6.09660156 0.00382812 7.37890625 0.0078125 C9.23999023 0.00201172 9.23999023 0.00201172 11.13867188 -0.00390625 C12.33041016 -0.00261719 13.52214844 -0.00132813 14.75 0 C15.84111084 0.00112793 16.93222168 0.00225586 18.05639648 0.00341797 C20.53277855 0.11448529 22.58232858 0.41369907 24.94140625 1.1328125 C25.25922942 2.61084454 25.5702949 4.09032962 25.87890625 5.5703125 C26.05292969 6.39402344 26.22695312 7.21773437 26.40625 8.06640625 C27.69726119 15.46380612 28.0795603 22.69392202 28.00390625 30.1953125 C27.99939453 31.06091797 27.99488281 31.92652344 27.99023438 32.81835938 C27.97860538 34.92320789 27.96067698 37.02802008 27.94140625 39.1328125 C27.61140625 39.1328125 27.28140625 39.1328125 26.94140625 39.1328125 C25.70742506 34.36206633 25.82915572 29.7068707 25.87890625 24.8203125 C25.89953125 21.9534375 25.92015625 19.0865625 25.94140625 16.1328125 C8.61640625 16.6278125 8.61640625 16.6278125 -9.05859375 17.1328125 C-9.05859375 11.8528125 -9.05859375 6.5728125 -9.05859375 1.1328125 C-5.80861753 0.04948709 -3.41811867 0.00353712 0 0 Z " fill="#C7C5CA" transform="translate(51.05859375,125.8671875)"/>
<path d="M0 0 C0.66 0.33 1.32 0.66 2 1 C2 1.66 2 2.32 2 3 C3.32 3.66 4.64 4.32 6 5 C5.7215625 6.3303125 5.7215625 6.3303125 5.4375 7.6875 C5.01957516 10.85178811 5.19222258 12.94839642 6 16 C4.68 16 3.36 16 2 16 C3.32 16.99 4.64 17.98 6 19 C5.505 21.475 5.505 21.475 5 24 C3.125 24.625 3.125 24.625 1 25 C-1.1385485 22.8614515 -1.42655063 21.86724686 -2 19 C-3.29633621 20.06645115 -3.29633621 20.06645115 -3.0625 22.5625 C-3.041875 23.366875 -3.02125 24.17125 -3 25 C-3.66 25 -4.32 25 -5 25 C-4.67 26.65 -4.34 28.3 -4 30 C-5.65 30 -7.3 30 -9 30 C-9.33 31.32 -9.66 32.64 -10 34 C-12.31 34.66 -14.62 35.32 -17 36 C-17 37.32 -17 38.64 -17 40 C-17.66 40 -18.32 40 -19 40 C-19 39.34 -19 38.68 -19 38 C-19.99 38 -20.98 38 -22 38 C-22.33 40.31 -22.66 42.62 -23 45 C-24.98 45.495 -24.98 45.495 -27 46 C-27.495 44.515 -27.495 44.515 -28 43 C-29.65 43 -31.3 43 -33 43 C-33.625 40.625 -33.625 40.625 -34 38 C-32 36 -32 36 -29.9375 35.5 C-28.9784375 35.2525 -28.9784375 35.2525 -28 35 C-27.67 34.34 -27.34 33.68 -27 33 C-26.34 33 -25.68 33 -25 33 C-24.67 32.34 -24.34 31.68 -24 31 C-23.01 30.67 -22.02 30.34 -21 30 C-21 28.68 -21 27.36 -21 26 C-19.68 26 -18.36 26 -17 26 C-16.67 24.35 -16.34 22.7 -16 21 C-15.01 21 -14.02 21 -13 21 C-13 20.34 -13 19.68 -13 19 C-11.35 18.67 -9.7 18.34 -8 18 C-8 17.34 -8 16.68 -8 16 C-8.66 16 -9.32 16 -10 16 C-10 15.34 -10 14.68 -10 14 C-9.34 14 -8.68 14 -8 14 C-8.2475 12.205625 -8.2475 12.205625 -8.5 10.375 C-8.54303055 7.35210394 -8.33779489 6.35409201 -6.21875 4.1328125 C-4.1958675 2.64414192 -2.1632983 1.27480078 0 0 Z M-2 4 C-1 7 -1 7 -1 7 Z M-2 11 C-1.67 11.99 -1.34 12.98 -1 14 C-0.67 13.01 -0.34 12.02 0 11 C-0.66 11 -1.32 11 -2 11 Z M-1 16 C0 18 0 18 0 18 Z M-17 32 C-16 34 -16 34 -16 34 Z M-25 35 C-25.33 35.66 -25.66 36.32 -26 37 C-25.34 37 -24.68 37 -24 37 C-24.33 36.34 -24.66 35.68 -25 35 Z M-26 38 C-26.33 38.99 -26.66 39.98 -27 41 C-26.01 40.67 -25.02 40.34 -24 40 C-24.66 39.34 -25.32 38.68 -26 38 Z " fill="#AA5BA8" transform="translate(127,34)"/>
<path d="M0 0 C1.46067199 0.45082469 2.91848032 0.91093537 4.375 1.375 C5.18710937 1.63023438 5.99921875 1.88546875 6.8359375 2.1484375 C9 3 9 3 11 5 C11.66 4.67 12.32 4.34 13 4 C12.67 21.49 12.34 38.98 12 57 C11.01 57 10.02 57 9 57 C9 44.46 9 31.92 9 19 C6.03 19 3.06 19 0 19 C0 31.21 0 43.42 0 56 C-1.32 56.66 -2.64 57.32 -4 58 C-4 45.13 -4 32.26 -4 19 C-4.66 18.67 -5.32 18.34 -6 18 C-5.34 18 -4.68 18 -4 18 C-4 15.36 -4 12.72 -4 10 C-2.68 9.67 -1.36 9.34 0 9 C0 10.65 0 12.3 0 14 C2.64 14 5.28 14 8 14 C7.22520264 11.00847418 7.22520264 11.00847418 6 8 C2.52176885 6.84058962 0.54104422 7.29179116 -3 8 C-2.42655063 5.13275314 -2.1385485 4.1385485 0 2 C0 1.34 0 0.68 0 0 Z " fill="#BDB5BF" transform="translate(12,70)"/>
<path d="M0 0 C2.97 0 5.94 0 9 0 C9.0246501 5.10863896 9.04283607 10.21724359 9.05493164 15.32592773 C9.05997204 17.06519168 9.0668043 18.80445136 9.07543945 20.54370117 C9.08751792 23.03825937 9.09323108 25.53276173 9.09765625 28.02734375 C9.10281754 28.80963852 9.10797882 29.59193329 9.11329651 30.39793396 C9.11349226 32.26567114 9.06199694 34.13329204 9 36 C8.505 36.495 8.505 36.495 8 37 C5.36 37 2.72 37 0 37 C0 24.79 0 12.58 0 0 Z " fill="#922A8E" transform="translate(12,89)"/>
<path d="M0 0 C0.66 0 1.32 0 2 0 C2.103125 1.11375 2.20625 2.2275 2.3125 3.375 C2.6528125 5.169375 2.6528125 5.169375 3 7 C3.99 7.66 4.98 8.32 6 9 C6.33 9.99 6.66 10.98 7 12 C7.99 11.67 8.98 11.34 10 11 C10 9.02 10 7.04 10 5 C13.37817425 4.15545644 15.67465243 3.89155081 19 5 C19 5.66 19 6.32 19 7 C19.66 7 20.32 7 21 7 C21 6.34 21 5.68 21 5 C21.66 5 22.32 5 23 5 C23 5.66 23 6.32 23 7 C24.32 7.66 25.64 8.32 27 9 C26.67 11.31 26.34 13.62 26 16 C19.25 17.125 19.25 17.125 17 16 C17 16.66 17 17.32 17 18 C13.21812119 19.83691257 11.05431692 20.15837626 7 19 C6.67 17.35 6.34 15.7 6 14 C5.34 14 4.68 14 4 14 C4 14.99 4 15.98 4 17 C3.01 17 2.02 17 1 17 C0.67 16.34 0.34 15.68 0 15 C-0.99 15 -1.98 15 -3 15 C-3 14.01 -3 13.02 -3 12 C-2.01 12 -1.02 12 0 12 C-0.66 10.68 -1.32 9.36 -2 8 C-2 8.66 -2 9.32 -2 10 C-2.66 10 -3.32 10 -4 10 C-4.33 8.68 -4.66 7.36 -5 6 C-4.34 6 -3.68 6 -3 6 C-2.87625 5.38125 -2.7525 4.7625 -2.625 4.125 C-2 2 -2 2 0 0 Z M16 7 C15.67 8.32 15.34 9.64 15 11 C15.66 11 16.32 11 17 11 C16.67 9.68 16.34 8.36 16 7 Z M14 12 C14.33 12.66 14.66 13.32 15 14 C15.66 13.67 16.32 13.34 17 13 C16.01 12.67 15.02 12.34 14 12 Z " fill="#B268AF" transform="translate(53,72)"/>
<path d="M0 0 C0.99 0.495 0.99 0.495 2 1 C2.66 0.67 3.32 0.34 4 0 C10.98123324 -0.56300268 10.98123324 -0.56300268 14.375 1.3125 C16.93266309 5.54248126 17.36454125 10.15044636 18 15 C17.01 15.495 17.01 15.495 16 16 C15.67 23.92 15.34 31.84 15 40 C14.01 39.67 13.02 39.34 12 39 C11.67 29.76 11.34 20.52 11 11 C9.02 11 7.04 11 5 11 C3.16780354 12.83219646 3.76098672 15.75713741 3.68359375 18.22265625 C3.64169922 19.48271484 3.59980469 20.74277344 3.55664062 22.04101562 C3.51682404 23.38150736 3.47711186 24.7220022 3.4375 26.0625 C3.39431958 27.40691523 3.35070544 28.7513166 3.30664062 30.09570312 C3.20014642 33.3970234 3.0981354 36.69842236 3 40 C2.34 40 1.68 40 1 40 C0.85721003 35.19450973 0.71480303 30.38900832 0.57275391 25.58349609 C0.52435717 23.94807629 0.47585503 22.3126596 0.42724609 20.67724609 C0.35747127 18.32910964 0.28807318 15.98096232 0.21875 13.6328125 C0.19687622 12.89942657 0.17500244 12.16604065 0.15246582 11.41043091 C0.04045428 7.60288375 0 3.80923512 0 0 Z " fill="#BFB7C1" transform="translate(25,87)"/>
<path d="M0 0 C2.9375 0.1875 2.9375 0.1875 3.9375 1.1875 C4.02517112 3.26012076 4.04445873 5.33570294 4.03515625 7.41015625 C4.03193359 8.67021484 4.02871094 9.93027344 4.02539062 11.22851562 C4.01703403 12.56901109 4.00856907 13.90950588 4 15.25 C3.9949866 16.59439942 3.99042342 17.9388006 3.98632812 19.28320312 C3.97449488 22.58467941 3.95800971 25.88606803 3.9375 29.1875 C0.9675 29.1875 -2.0025 29.1875 -5.0625 29.1875 C-5.1203304 24.72922074 -5.15603855 20.2710372 -5.1875 15.8125 C-5.20425781 14.54148437 -5.22101562 13.27046875 -5.23828125 11.9609375 C-5.24472656 10.74921875 -5.25117188 9.5375 -5.2578125 8.2890625 C-5.27352295 6.60804443 -5.27352295 6.60804443 -5.28955078 4.89306641 C-4.95315407 0.88451975 -3.96717948 0.24288854 0 0 Z " fill="#952F91" transform="translate(33.0625,96.8125)"/>
<path d="M0 0 C0.66 0 1.32 0 2 0 C2.268125 0.94875 2.53625 1.8975 2.8125 2.875 C3.74986588 6.25267273 3.74986588 6.25267273 7 8 C6.67 8.99 6.34 9.98 6 11 C4 9.625 4 9.625 2 8 C2 7.34 2 6.68 2 6 C-5.98279576 5.51782426 -5.98279576 5.51782426 -13 9 C-13.66 9 -14.32 9 -15 9 C-17.61895048 13.77573323 -16.83119431 17.84434881 -16 23 C-16 22.34 -16 21.68 -16 21 C-16 19.33333333 -16 17.66666667 -16 16 C-14.68 15.67 -13.36 15.34 -12 15 C-12 13.68 -12 12.36 -12 11 C-8.54590969 9.27295484 -4.77681416 9.51115703 -1 10 C1.625 11.75 1.625 11.75 3 14 C2.75 16.25 2.75 16.25 2 18 C1.608125 17.525625 1.21625 17.05125 0.8125 16.5625 C-1.85340481 14.2643062 -4.54989826 14 -8 14 C-8.33 14.66 -8.66 15.32 -9 16 C-9.66 16 -10.32 16 -11 16 C-11.33 17.32 -11.66 18.64 -12 20 C-11.01 19.67 -10.02 19.34 -9 19 C-9.33 21.64 -9.66 24.28 -10 27 C-10.33 27 -10.66 27 -11 27 C-11.33 25.35 -11.66 23.7 -12 22 C-12.33 24.64 -12.66 27.28 -13 30 C-15.59780336 29.64168229 -16.75946212 29.25848846 -18.5703125 27.3125 C-21.28618449 22.91961416 -21.42697783 18.05904029 -21 13 C-18.95021733 8.22714837 -16.3495173 5.59978547 -11.625 3.5 C-10.75875 3.335 -9.8925 3.17 -9 3 C-9 2.34 -9 1.68 -9 1 C-6.36 1.33 -3.72 1.66 -1 2 C-0.67 1.34 -0.34 0.68 0 0 Z " fill="#B87CB6" transform="translate(21,58)"/>
<path d="M0 0 C2.64 0 5.28 0 8 0 C8 1.65 8 3.3 8 5 C8.99 5 9.98 5 11 5 C11 5.99 11 6.98 11 8 C10.01 8 9.02 8 8 8 C8 8.66 8 9.32 8 10 C8.99 10 9.98 10 11 10 C11 10.66 11 11.32 11 12 C10.01 12.495 10.01 12.495 9 13 C9 13.99 9 14.98 9 16 C7.68 16 6.36 16 5 16 C4.01 18.475 4.01 18.475 3 21 C0 21 0 21 -3 20 C-3.33 21.32 -3.66 22.64 -4 24 C-4.99 24 -5.98 24 -7 24 C-7 22.35 -7 20.7 -7 19 C-6.34 19 -5.68 19 -5 19 C-4.7834375 17.8553125 -4.7834375 17.8553125 -4.5625 16.6875 C-4 14 -4 14 -3 11 C-2.01 11 -1.02 11 0 11 C-0.04125 10.071875 -0.0825 9.14375 -0.125 8.1875 C0 5 0 5 2 2 C1.34 2 0.68 2 0 2 C0 1.34 0 0.68 0 0 Z " fill="#A856A5" transform="translate(81,21)"/>
<path d="M0 0 C1.32 0 2.64 0 4 0 C4.66 2.97 5.32 5.94 6 9 C7.65 9 9.3 9 11 9 C11 9.99 11 10.98 11 12 C11.66 12 12.32 12 13 12 C13.33 14.31 13.66 16.62 14 19 C13.39671875 18.98839844 12.7934375 18.97679688 12.171875 18.96484375 C11.37265625 18.95582031 10.5734375 18.94679688 9.75 18.9375 C8.96109375 18.92589844 8.1721875 18.91429688 7.359375 18.90234375 C5.09308998 18.99614694 3.1711105 19.36758937 1 20 C-1.75705441 16.04422628 -2.64439719 12.80063795 -3 8 C-2.67 7.01 -2.34 6.02 -2 5 C-1.34 5 -0.68 5 0 5 C0 3.35 0 1.7 0 0 Z M0 12 C4 13 4 13 4 13 Z " fill="#A650A2" transform="translate(34,49)"/>
<path d="M0 0 C0.99 0 1.98 0 3 0 C3.33 1.32 3.66 2.64 4 4 C4 3.34 4 2.68 4 2 C4.99 2 5.98 2 7 2 C7.33 3.98 7.66 5.96 8 8 C10.64 8 13.28 8 16 8 C15.34 9.65 14.68 11.3 14 13 C13.01 13 12.02 13 11 13 C11 12.01 11 11.02 11 10 C9.68 10 8.36 10 7 10 C6.67 11.32 6.34 12.64 6 14 C5.34 11.69 4.68 9.38 4 7 C1.7522025 9.05233685 0.9977758 10.00667261 0 13 C-0.99 13.495 -0.99 13.495 -2 14 C-2.928125 15.7325 -2.928125 15.7325 -3.875 17.5 C-5.73104234 20.85329582 -5.73104234 20.85329582 -8.0625 22.125 C-10 22 -10 22 -11.75 20.5625 C-12.1625 20.046875 -12.575 19.53125 -13 19 C-12.1875 16.5625 -12.1875 16.5625 -11 14 C-10.01 13.67 -9.02 13.34 -8 13 C-7.27095914 11.35965807 -6.61344757 9.68698082 -6 8 C-4.5625 5.1875 -4.5625 5.1875 -3 3 C-2.01 3 -1.02 3 0 3 C0 2.01 0 1.02 0 0 Z M5 3 C5 3.66 5 4.32 5 5 C5.66 4.67 6.32 4.34 7 4 C6.34 3.67 5.68 3.34 5 3 Z M-6 14 C-5 16 -5 16 -5 16 Z " fill="#CDA0CC" transform="translate(27,39)"/>
<path d="M0 0 C3.17826457 0.42273504 3.17826457 0.42273504 6.375 0.5625 C6.375 1.5525 6.375 2.5425 6.375 3.5625 C7.035 3.8925 7.695 4.2225 8.375 4.5625 C7.70833333 6.5625 7.04166667 8.5625 6.375 10.5625 C5.715 10.5625 5.055 10.5625 4.375 10.5625 C4.045 11.2225 3.715 11.8825 3.375 12.5625 C4.695 13.2225 6.015 13.8825 7.375 14.5625 C7.705 13.5725 8.035 12.5825 8.375 11.5625 C8.705 13.2125 9.035 14.8625 9.375 16.5625 C8.385 16.5625 7.395 16.5625 6.375 16.5625 C6.045 17.2225 5.715 17.8825 5.375 18.5625 C5.375 17.9025 5.375 17.2425 5.375 16.5625 C3.725 16.5625 2.075 16.5625 0.375 16.5625 C0.375 15.9025 0.375 15.2425 0.375 14.5625 C-0.615 14.5625 -1.605 14.5625 -2.625 14.5625 C-2.625 13.9025 -2.625 13.2425 -2.625 12.5625 C-3.615 12.2325 -4.605 11.9025 -5.625 11.5625 C-5.625 10.2425 -5.625 8.9225 -5.625 7.5625 C-6.615 7.2325 -7.605 6.9025 -8.625 6.5625 C-8.295 5.5725 -7.965 4.5825 -7.625 3.5625 C-8.285 3.2325 -8.945 2.9025 -9.625 2.5625 C-8.625 0.5625 -8.625 0.5625 -6.8515625 -0.08984375 C-4.41424473 -0.4704074 -2.44045965 -0.33056393 0 0 Z M2.375 4.5625 C3.375 6.5625 3.375 6.5625 3.375 6.5625 Z M0.375 8.5625 C0.705 9.8825 1.035 11.2025 1.375 12.5625 C1.705 11.5725 2.035 10.5825 2.375 9.5625 C1.715 9.2325 1.055 8.9025 0.375 8.5625 Z " fill="#BF82BD" transform="translate(43.625,67.4375)"/>
<path d="M0 0 C0.33 1.32 0.66 2.64 1 4 C1.763125 3.484375 2.52625 2.96875 3.3125 2.4375 C4.199375 1.963125 5.08625 1.48875 6 1 C6.99 1.33 7.98 1.66 9 2 C8.3125 3.9375 8.3125 3.9375 7 6 C5.33333333 6.33333333 3.66666667 6.66666667 2 7 C1.29848848 8.3153341 0.63474075 9.65117592 0 11 C-2.93973224 13.11057699 -4.34648137 14 -8 14 C-8.33 14.99 -8.66 15.98 -9 17 C-10.32 17 -11.64 17 -13 17 C-15.75041666 19.41666771 -15.75041666 19.41666771 -18 22 C-18.99 21.67 -19.98 21.34 -21 21 C-20.34 21 -19.68 21 -19 21 C-18.87625 20.443125 -18.7525 19.88625 -18.625 19.3125 C-17.94023145 16.77885636 -17.00866237 14.42078968 -16 12 C-15.01 12 -14.02 12 -13 12 C-13 11.34 -13 10.68 -13 10 C-12.34 10 -11.68 10 -11 10 C-10.67 9.01 -10.34 8.02 -10 7 C-7.01540871 5.04457812 -5.73585209 5 -2 5 C-2 4.01 -2 3.02 -2 2 C-1.34 2 -0.68 2 0 2 C0 1.34 0 0.68 0 0 Z M-5 7 C-4 9 -4 9 -4 9 Z " fill="#AC5EA9" transform="translate(73,41)"/>
<path d="M0 0 C1.875 0.6875 1.875 0.6875 2.875 1.6875 C2.96169432 3.1762186 2.98203494 4.668945 2.97265625 6.16015625 C2.96943359 7.05927734 2.96621094 7.95839844 2.96289062 8.88476562 C2.95451172 9.83029297 2.94613281 10.77582031 2.9375 11.75 C2.93298828 12.69939453 2.92847656 13.64878906 2.92382812 14.62695312 C2.9120011 16.98053065 2.89552025 19.33398477 2.875 21.6875 C0.235 21.6875 -2.405 21.6875 -5.125 21.6875 C-5.21185287 18.39599875 -5.26533895 15.1047904 -5.3125 11.8125 C-5.33763672 10.87535156 -5.36277344 9.93820313 -5.38867188 8.97265625 C-5.39833984 8.07675781 -5.40800781 7.18085937 -5.41796875 6.2578125 C-5.4336792 5.43039551 -5.44938965 4.60297852 -5.46557617 3.75048828 C-5.35318604 3.06970215 -5.2407959 2.38891602 -5.125 1.6875 C-2.125 -0.3125 -2.125 -0.3125 0 0 Z " fill="#942C90" transform="translate(51.125,104.3125)"/>
<path d="M0 0 C2.5 1.1875 2.5 1.1875 5 3 C5.3125 5.4375 5.3125 5.4375 5 8 C5 9.32 5 10.64 5 12 C5 12.66 5 13.32 5 14 C5.268125 14.763125 5.53625 15.52625 5.8125 16.3125 C6 19 6 19 3.5625 21.8125 C2.716875 22.534375 1.87125 23.25625 1 24 C1 23.01 1 22.02 1 21 C0.01 21 -0.98 21 -2 21 C-2 19.35 -2 17.7 -2 16 C-3.65 16 -5.3 16 -7 16 C-6.34 12.37 -5.68 8.74 -5 5 C-3.68 4.67 -2.36 4.34 -1 4 C-0.67 2.68 -0.34 1.36 0 0 Z " fill="#E3C8E2" transform="translate(91,5)"/>
<path d="M0 0 C1.98 0 3.96 0 6 0 C5.814375 1.093125 5.62875 2.18625 5.4375 3.3125 C4.7421932 6.93624133 4.7421932 6.93624133 6 10 C5.34 10 4.68 10 4 10 C4 11.32 4 12.64 4 14 C3.34 14 2.68 14 2 14 C2 13.34 2 12.68 2 12 C1.01 12 0.02 12 -1 12 C-1.33 14.31 -1.66 16.62 -2 19 C-3.32 19.33 -4.64 19.66 -6 20 C-6.33 19.01 -6.66 18.02 -7 17 C-8.65 17 -10.3 17 -12 17 C-12.625 14.625 -12.625 14.625 -13 12 C-11 10 -11 10 -8.9375 9.5 C-8.298125 9.335 -7.65875 9.17 -7 9 C-6.67 8.34 -6.34 7.68 -6 7 C-5.34 7 -4.68 7 -4 7 C-3.67 6.34 -3.34 5.68 -3 5 C-2.01 4.67 -1.02 4.34 0 4 C0 2.68 0 1.36 0 0 Z M-4 9 C-4.33 9.66 -4.66 10.32 -5 11 C-4.34 11 -3.68 11 -3 11 C-3.33 10.34 -3.66 9.68 -4 9 Z M-5 12 C-5.33 12.99 -5.66 13.98 -6 15 C-5.01 14.67 -4.02 14.34 -3 14 C-3.66 13.34 -4.32 12.68 -5 12 Z " fill="#AE62AC" transform="translate(106,60)"/>
<path d="M0 0 C1.22589844 0.01353516 1.22589844 0.01353516 2.4765625 0.02734375 C3.41628906 0.04474609 3.41628906 0.04474609 4.375 0.0625 C4.045 2.3725 3.715 4.6825 3.375 7.0625 C2.715 7.0625 2.055 7.0625 1.375 7.0625 C1.705 8.7125 2.035 10.3625 2.375 12.0625 C0.725 12.0625 -0.925 12.0625 -2.625 12.0625 C-2.955 13.3825 -3.285 14.7025 -3.625 16.0625 C-5.5 16.6875 -5.5 16.6875 -7.625 17.0625 C-8.285 16.4025 -8.945 15.7425 -9.625 15.0625 C-9.25 11.4375 -9.25 11.4375 -8.625 8.0625 C-9.285 8.0625 -9.945 8.0625 -10.625 8.0625 C-10.295 6.4125 -9.965 4.7625 -9.625 3.0625 C-8.635 3.0625 -7.645 3.0625 -6.625 3.0625 C-6.625 2.4025 -6.625 1.7425 -6.625 1.0625 C-4.21954362 -0.14022819 -2.67503047 -0.03821472 0 0 Z " fill="#A752A4" transform="translate(120.625,51.9375)"/>
<path d="M0 0 C0.66 0 1.32 0 2 0 C2.103125 1.11375 2.20625 2.2275 2.3125 3.375 C2.6528125 5.169375 2.6528125 5.169375 3 7 C3.99 7.66 4.98 8.32 6 9 C6.33 9.99 6.66 10.98 7 12 C9.31 12 11.62 12 14 12 C14 14.31 14 16.62 14 19 C11.125 19.625 11.125 19.625 8 20 C7.34 19.34 6.68 18.68 6 18 C6 16.68 6 15.36 6 14 C5.34 14 4.68 14 4 14 C4 14.99 4 15.98 4 17 C3.01 17 2.02 17 1 17 C0.67 16.34 0.34 15.68 0 15 C-0.99 15 -1.98 15 -3 15 C-3 14.01 -3 13.02 -3 12 C-2.01 12 -1.02 12 0 12 C-0.66 10.68 -1.32 9.36 -2 8 C-2 8.66 -2 9.32 -2 10 C-2.66 10 -3.32 10 -4 10 C-4.33 8.68 -4.66 7.36 -5 6 C-4.34 6 -3.68 6 -3 6 C-2.87625 5.38125 -2.7525 4.7625 -2.625 4.125 C-2 2 -2 2 0 0 Z " fill="#A550A2" transform="translate(53,72)"/>
<path d="M0 0 C2.5 0.25 2.5 0.25 4.5 2.25 C4.6953125 5.2890625 4.6953125 5.2890625 4.625 8.875 C4.60695313 10.06351563 4.58890625 11.25203125 4.5703125 12.4765625 C4.54710938 13.39179687 4.52390625 14.30703125 4.5 15.25 C1.53 15.25 -1.44 15.25 -4.5 15.25 C-4.55386629 13.12527424 -4.59273071 11.00016348 -4.625 8.875 C-4.64820313 7.69164063 -4.67140625 6.50828125 -4.6953125 5.2890625 C-4.45101075 1.48772725 -3.86718477 0.38671848 0 0 Z " fill="#922B8E" transform="translate(66.5,110.75)"/>
<path d="M0 0 C0.33 1.32 0.66 2.64 1 4 C2.32 4.33 3.64 4.66 5 5 C3.68 5 2.36 5 1 5 C1 5.66 1 6.32 1 7 C-0.65 7 -2.3 7 -4 7 C-4 7.99 -4 8.98 -4 10 C-4.66 10 -5.32 10 -6 10 C-6.33 11.65 -6.66 13.3 -7 15 C-7.99 15.33 -8.98 15.66 -10 16 C-10 16.99 -10 17.98 -10 19 C-13.76687864 19 -14.91190305 18.76462683 -18 17 C-17.25 14.5625 -17.25 14.5625 -16 12 C-13.9375 11.375 -13.9375 11.375 -12 11 C-11.67 10.01 -11.34 9.02 -11 8 C-10.34 7.67 -9.68 7.34 -9 7 C-9 6.34 -9 5.68 -9 5 C-8.34 5 -7.68 5 -7 5 C-7 4.34 -7 3.68 -7 3 C-4.69 2.01 -2.38 1.02 0 0 Z M-2 3 C-1.67 3.66 -1.34 4.32 -1 5 C-0.67 4.34 -0.34 3.68 0 3 C-0.66 3 -1.32 3 -2 3 Z " fill="#B269AF" transform="translate(61,5)"/>
<path d="M0 0 C0 0.66 0 1.32 0 2 C2.475 2.495 2.475 2.495 5 3 C5.625 4.875 5.625 4.875 6 7 C5.34 7.66 4.68 8.32 4 9 C1.375 8.625 1.375 8.625 -1 8 C-1.33 6.68 -1.66 5.36 -2 4 C-2.556875 4.515625 -3.11375 5.03125 -3.6875 5.5625 C-6 7 -6 7 -8.6875 6.8125 C-11 6 -11 6 -12 4 C-12.99 3.67 -13.98 3.34 -15 3 C-14.67 2.34 -14.34 1.68 -14 1 C-11.85546875 0.33203125 -11.85546875 0.33203125 -9.1875 -0.1875 C-8.31480469 -0.36667969 -7.44210938 -0.54585938 -6.54296875 -0.73046875 C-4.02642222 -0.99719949 -2.38332645 -0.78333107 0 0 Z " fill="#AA59A7" transform="translate(93,76)"/>
<path d="M0 0 C0.99 0 1.98 0 3 0 C3 9 3 9 2 12 C2.99 12.33 3.98 12.66 5 13 C5.6875 15.0625 5.6875 15.0625 6 17 C6.99 17 7.98 17 9 17 C9 17.99 9 18.98 9 20 C7.68 20 6.36 20 5 20 C4.67 20.99 4.34 21.98 4 23 C3.01 23 2.02 23 1 23 C1 22.01 1 21.02 1 20 C-0.32 19.67 -1.64 19.34 -3 19 C-1.68 19 -0.36 19 1 19 C1 18.34 1 17.68 1 17 C-0.65 17.33 -2.3 17.66 -4 18 C-4 17.01 -4 16.02 -4 15 C-3.01 15 -2.02 15 -1 15 C-1.01160156 14.16855469 -1.02320313 13.33710937 -1.03515625 12.48046875 C-1.04869141 10.85044922 -1.04869141 10.85044922 -1.0625 9.1875 C-1.07410156 8.10855469 -1.08570313 7.02960937 -1.09765625 5.91796875 C-1 3 -1 3 0 0 Z " fill="#B874B6" transform="translate(44,38)"/>
<path d="M0 0 C1.98 0 3.96 0 6 0 C6.25 2.3125 6.25 2.3125 6 5 C5.38125 5.433125 4.7625 5.86625 4.125 6.3125 C0.82582995 8.93242916 0.79933783 11.93669936 0 16 C-1.32 16 -2.64 16 -4 16 C-4.33333333 14.66666667 -4.66666667 13.33333333 -5 12 C-5.2475 11.319375 -5.495 10.63875 -5.75 9.9375 C-6 8 -6 8 -4.75 6.25 C-3 5 -3 5 0 5 C0 3.35 0 1.7 0 0 Z " fill="#963192" transform="translate(85,4)"/>
<path d="M0 0 C1.32 0.33 2.64 0.66 4 1 C4.33 2.98 4.66 4.96 5 7 C3.68 7 2.36 7 1 7 C2.32 7.99 3.64 8.98 5 10 C4.67 11.65 4.34 13.3 4 15 C2.125 15.625 2.125 15.625 0 16 C-2.42381048 13.57618952 -2.44016497 12.47105079 -2.8125 9.125 C-2.92207031 8.26132812 -3.03164062 7.39765625 -3.14453125 6.5078125 C-2.96851602 3.45371047 -2.01473912 2.23859903 0 0 Z M-2 7 C-1 9 -1 9 -1 9 Z " fill="#C893C6" transform="translate(128,43)"/>
<path d="M0 0 C3.35237404 0.55872901 6.02471107 1.35846128 9 3 C11.11785113 4.11785113 11.11785113 4.11785113 14 5 C13.67 7.31 13.34 9.62 13 12 C10.69 12 8.38 12 6 12 C6 10.68 6 9.36 6 8 C5.34 8 4.68 8 4 8 C4 7.01 4 6.02 4 5 C2.68 4.67 1.36 4.34 0 4 C0 2.68 0 1.36 0 0 Z M6 5 C6.33 5.66 6.66 6.32 7 7 C7.33 6.34 7.66 5.68 8 5 C7.34 5 6.68 5 6 5 Z " fill="#C186BF" transform="translate(30,35)"/>
<path d="M0 0 C0.99 0.33 1.98 0.66 3 1 C2.54857119 2.29409592 2.08858979 3.58521059 1.625 4.875 C1.36976562 5.59429687 1.11453125 6.31359375 0.8515625 7.0546875 C0 9 0 9 -2 11 C-1.71395102 12.67542976 -1.38218767 14.34385343 -1 16 C-1.33 16.33 -1.66 16.66 -2 17 C-2.15988491 19.51880517 -2.25934225 22.01342266 -2.31640625 24.53515625 C-2.33718735 25.28840683 -2.35796844 26.04165741 -2.37937927 26.81773376 C-2.44495425 29.2325599 -2.50379621 31.64749798 -2.5625 34.0625 C-2.6056777 35.69597529 -2.64929173 37.3294391 -2.69335938 38.96289062 C-2.80064362 42.97514464 -2.90188821 46.98751164 -3 51 C-3.33 51 -3.66 51 -4 51 C-4 35.16 -4 19.32 -4 3 C-3.34 3.66 -2.68 4.32 -2 5 C-1.34 3.35 -0.68 1.7 0 0 Z " fill="#AA76A9" transform="translate(28,76)"/>
<path d="M0 0 C0.33 1.32 0.66 2.64 1 4 C1.763125 3.484375 2.52625 2.96875 3.3125 2.4375 C4.199375 1.963125 5.08625 1.48875 6 1 C6.99 1.33 7.98 1.66 9 2 C8.3125 3.9375 8.3125 3.9375 7 6 C5.33333333 6.33333333 3.66666667 6.66666667 2 7 C1.3162955 8.32467746 0.65035814 9.65863633 0 11 C-2.625 12.25 -2.625 12.25 -5 13 C-5.12375 12.071875 -5.12375 12.071875 -5.25 11.125 C-5.81258459 8.81562433 -5.81258459 8.81562433 -8.0625 7.75 C-8.701875 7.5025 -9.34125 7.255 -10 7 C-6.91190305 5.23537317 -5.76687864 5 -2 5 C-2 4.01 -2 3.02 -2 2 C-1.34 2 -0.68 2 0 2 C0 1.34 0 0.68 0 0 Z M-5 7 C-4 9 -4 9 -4 9 Z " fill="#A958A6" transform="translate(73,41)"/>
<path d="M0 0 C1.32 0 2.64 0 4 0 C4 0.99 4 1.98 4 3 C4.66 3 5.32 3 6 3 C6.33 5.31 6.66 7.62 7 10 C6.39671875 9.98839844 5.7934375 9.97679688 5.171875 9.96484375 C4.37265625 9.95582031 3.5734375 9.94679688 2.75 9.9375 C1.96109375 9.92589844 1.1721875 9.91429688 0.359375 9.90234375 C-2.00234701 9.91917899 -2.00234701 9.91917899 -4.234375 10.56640625 C-4.81703125 10.70949219 -5.3996875 10.85257813 -6 11 C-7 10 -7 10 -7.0625 7.4375 C-7.041875 6.633125 -7.02125 5.82875 -7 5 C-3.78600767 4.91072244 -1.0937211 5.1465597 2 6 C2.66 6 3.32 6 4 6 C4 5.34 4 4.68 4 4 C2.68 4 1.36 4 0 4 C0 2.68 0 1.36 0 0 Z " fill="#A24B9F" transform="translate(41,58)"/>
<path d="M0 0 C3.71599191 -0.20086443 4.77208445 -0.1519437 8 2 C7.649375 2.5775 7.29875 3.155 6.9375 3.75 C5.75606824 5.93696145 5.75606824 5.93696145 6.5625 8.0625 C6.706875 8.701875 6.85125 9.34125 7 10 C5.5625 11.75 5.5625 11.75 4 13 C2.68 12.34 1.36 11.68 0 11 C0.33 8.69 0.66 6.38 1 4 C0.34 4 -0.32 4 -1 4 C-0.67 2.68 -0.34 1.36 0 0 Z " fill="#A0459C" transform="translate(111,56)"/>
<path d="M0 0 C1 1 1 1 1.125 3.5 C1 6 1 6 0 7 C-2.01964199 7.07244053 -4.04167124 7.08377188 -6.0625 7.0625 C-7.16722656 7.05347656 -8.27195312 7.04445313 -9.41015625 7.03515625 C-10.69212891 7.01775391 -10.69212891 7.01775391 -12 7 C-12 5.68 -12 4.36 -12 3 C-11.01 3 -10.02 3 -9 3 C-8.67 2.01 -8.34 1.02 -8 0 C-5.05743236 -1.21761419 -2.97659922 -1.02641353 0 0 Z M-8 4 C-8 4.66 -8 5.32 -8 6 C-7.34 5.67 -6.68 5.34 -6 5 C-6.66 4.67 -7.32 4.34 -8 4 Z " fill="#952F91" transform="translate(74,2)"/>
<path d="M0 0 C2.3125 0.125 2.3125 0.125 5 1 C8 5.86206897 8 5.86206897 8 9 C7.34 9 6.68 9 6 9 C5.67 9.99 5.34 10.98 5 12 C4.01 11.67 3.02 11.34 2 11 C2 10.01 2 9.02 2 8 C1.01 8 0.02 8 -1 8 C-1.625 5.6875 -1.625 5.6875 -2 3 C-1.34 2.01 -0.68 1.02 0 0 Z " fill="#9E429B" transform="translate(88,12)"/>
<path d="M0 0 C0 2.31 0 4.62 0 7 C-2.875 7.625 -2.875 7.625 -6 8 C-6.66 7.34 -7.32 6.68 -8 6 C-8 4.68 -8 3.36 -8 2 C-8.66 2 -9.32 2 -10 2 C-10 2.99 -10 3.98 -10 5 C-10.99 5 -11.98 5 -13 5 C-13 3.68 -13 2.36 -13 1 C-8.60563789 0.14256349 -4.47427924 -0.08948558 0 0 Z " fill="#9E419B" transform="translate(67,84)"/>
<path d="M0 0 C0.66 0.33 1.32 0.66 2 1 C2 1.66 2 2.32 2 3 C1.34 3 0.68 3 0 3 C0.2475 3.721875 0.495 4.44375 0.75 5.1875 C1 8 1 8 -0.9375 10.8125 C-1.618125 11.534375 -2.29875 12.25625 -3 13 C-4.65 12.67 -6.3 12.34 -8 12 C-8.625 10.1875 -8.625 10.1875 -9 8 C-7 5 -7 5 -4 4 C-3.67 3.01 -3.34 2.02 -3 1 C-2.01 0.67 -1.02 0.34 0 0 Z M-2 5 C-1 7 -1 7 -1 7 Z " fill="#DAB9D9" transform="translate(23,48)"/>
<path d="M0 0 C0.33 0.66 0.66 1.32 1 2 C1.99 2 2.98 2 4 2 C4 2.99 4 3.98 4 5 C5.65 5.33 7.3 5.66 9 6 C8.34 8.64 7.68 11.28 7 14 C6.01 14 5.02 14 4 14 C3.67 14.66 3.34 15.32 3 16 C2.67 15.01 2.34 14.02 2 13 C-0.00016466 11.79117904 -0.00016466 11.79117904 -2 11 C-1.34 11 -0.68 11 0 11 C0 7.37 0 3.74 0 0 Z M1 9 C1.33 9.99 1.66 10.98 2 12 C2.66 11.67 3.32 11.34 4 11 C3.01 10.34 2.02 9.68 1 9 Z " fill="#CA98C8" transform="translate(56,68)"/>
<path d="M0 0 C1.98 0 3.96 0 6 0 C6 0.99 6 1.98 6 3 C6.66 3.33 7.32 3.66 8 4 C7.33333333 6 6.66666667 8 6 10 C5.34 10 4.68 10 4 10 C3.67 10.66 3.34 11.32 3 12 C2.34 12 1.68 12 1 12 C1 11.01 1 10.02 1 9 C0.01 8.34 -0.98 7.68 -2 7 C-1.34 4.69 -0.68 2.38 0 0 Z M2 4 C3 6 3 6 3 6 Z " fill="#CE9FCC" transform="translate(44,68)"/>
<path d="M0 0 C1.98 0 3.96 0 6 0 C5.814375 1.093125 5.62875 2.18625 5.4375 3.3125 C4.7421932 6.93624133 4.7421932 6.93624133 6 10 C5.34 10 4.68 10 4 10 C4 11.32 4 12.64 4 14 C3.34 14 2.68 14 2 14 C2 13.34 2 12.68 2 12 C1.01 12 0.02 12 -1 12 C-1.33 12.99 -1.66 13.98 -2 15 C-2.99 14.01 -3.98 13.02 -5 12 C-2 10 -2 10 2 10 C2 8.02 2 6.04 2 4 C1.34 4 0.68 4 0 4 C0 2.68 0 1.36 0 0 Z " fill="#C38BC1" transform="translate(106,60)"/>
<path d="M0 0 C1.9375 0.75 1.9375 0.75 4 2 C4.8125 4 4.8125 4 5 6 C4.67 6.66 4.34 7.32 4 8 C2.66923011 8.34342449 1.33568021 8.67619874 0 9 C-0.66 9.66 -1.32 10.32 -2 11 C-2.33 10.34 -2.66 9.68 -3 9 C-3.99 8.34 -4.98 7.68 -6 7 C-5 5 -5 5 -2 4 C-2 3.34 -2 2.68 -2 2 C-1.34 2 -0.68 2 0 2 C0 1.34 0 0.68 0 0 Z " fill="#D5AED3" transform="translate(37,27)"/>
<path d="M0 0 C0.33 1.32 0.66 2.64 1 4 C2.32 4 3.64 4 5 4 C5 4.66 5 5.32 5 6 C4.01 6.33 3.02 6.66 2 7 C2 7.99 2 8.98 2 10 C-1.76687864 10 -2.91190305 9.76462683 -6 8 C-5.25 5.5625 -5.25 5.5625 -4 3 C-1.875 2.1875 -1.875 2.1875 0 2 C0 1.34 0 0.68 0 0 Z " fill="#BC7EBA" transform="translate(49,14)"/>
<path d="M0 0 C1.65 0 3.3 0 5 0 C5 1.65 5 3.3 5 5 C3.68 5.33 2.36 5.66 1 6 C0.67 7.32 0.34 8.64 0 10 C-0.99 10 -1.98 10 -3 10 C-3 8.35 -3 6.7 -3 5 C-2.34 5 -1.68 5 -1 5 C-0.67 3.35 -0.34 1.7 0 0 Z " fill="#A2499E" transform="translate(77,35)"/>
<path d="M0 0 C2.625 1.75 2.625 1.75 4 4 C3.75 6.25 3.75 6.25 3 8 C2.608125 7.525625 2.21625 7.05125 1.8125 6.5625 C-0.43340628 4.6263739 -2.10066551 4.43490017 -5 4 C-5.99 3.67 -6.98 3.34 -8 3 C-8.99 3 -9.98 3 -11 3 C-11 2.34 -11 1.68 -11 1 C-7.54590969 -0.72704516 -3.77681416 -0.48884297 0 0 Z " fill="#AD5FAA" transform="translate(20,68)"/>
<path d="M0 0 C1.65 0 3.3 0 5 0 C5.97533063 2.63339271 6.019574 3.92348347 5.3125 6.6875 C4 9 4 9 1.875 9.8125 C1.25625 9.874375 0.6375 9.93625 0 10 C0 9.34 0 8.68 0 8 C0.66 8 1.32 8 2 8 C2 7.01 2 6.02 2 5 C0.68 5.33 -0.64 5.66 -2 6 C-1.34 4.02 -0.68 2.04 0 0 Z " fill="#C48EC2" transform="translate(23,43)"/>
<path d="M0 0 C1.65 0 3.3 0 5 0 C5 1.65 5 3.3 5 5 C5.99 5 6.98 5 8 5 C8 5.99 8 6.98 8 8 C5.39417629 8.93065133 4.35801776 9.14917407 1.75 8.0625 C1.1725 7.711875 0.595 7.36125 0 7 C0 4.69 0 2.38 0 0 Z " fill="#A44DA1" transform="translate(84,21)"/>
<path d="M0 0 C1.98 0.495 1.98 0.495 4 1 C4 1.66 4 2.32 4 3 C4.639375 3.28875 5.27875 3.5775 5.9375 3.875 C8 5 8 5 9 7 C8.34 7.66 7.68 8.32 7 9 C7 8.34 7 7.68 7 7 C5.35 7.33 3.7 7.66 2 8 C0.4375 6.25 0.4375 6.25 -1 4 C-0.6875 1.75 -0.6875 1.75 0 0 Z " fill="#BA79B7" transform="translate(40,22)"/>
<path d="M0 0 C0.99 0 1.98 0 3 0 C3 4.62 3 9.24 3 14 C2.01 14 1.02 14 0 14 C0 9.38 0 4.76 0 0 Z " fill="#BDB5C0" transform="translate(59,113)"/>
<path d="M0 0 C1.98 0 3.96 0 6 0 C6.33 1.65 6.66 3.3 7 5 C5.35 5.66 3.7 6.32 2 7 C0 5 0 5 -0.125 2.375 C-0.08375 1.59125 -0.0425 0.8075 0 0 Z " fill="#A854A5" transform="translate(126,52)"/>
<path d="M0 0 C2.0625 0.4375 2.0625 0.4375 4 1 C4.625 2.875 4.625 2.875 5 5 C4.34 5.66 3.68 6.32 3 7 C0.375 6.625 0.375 6.625 -2 6 C-1.125 1.125 -1.125 1.125 0 0 Z " fill="#A1489E" transform="translate(94,78)"/>
<path d="M0 0 C0.763125 0.474375 1.52625 0.94875 2.3125 1.4375 C4.96410548 3.10106097 4.96410548 3.10106097 8 4 C8.33 3.01 8.66 2.02 9 1 C9.33 2.65 9.66 4.3 10 6 C9.01 6 8.02 6 7 6 C6.67 6.66 6.34 7.32 6 8 C6 7.34 6 6.68 6 6 C4.35 6 2.7 6 1 6 C1 5.34 1 4.68 1 4 C0.01 4 -0.98 4 -2 4 C-1.34 2.68 -0.68 1.36 0 0 Z " fill="#C793C5" transform="translate(43,78)"/>
<path d="M0 0 C1.65 0.33 3.3 0.66 5 1 C5 2.32 5 3.64 5 5 C3.02 5 1.04 5 -1 5 C-1 5.66 -1 6.32 -1 7 C-1.99 7 -2.98 7 -4 7 C-4 6.01 -4 5.02 -4 4 C-3.01 4 -2.02 4 -1 4 C-0.67 2.68 -0.34 1.36 0 0 Z " fill="#983694" transform="translate(54,80)"/>
<path d="M0 0 C2.5 1.1875 2.5 1.1875 5 3 C5.3125 5.4375 5.3125 5.4375 5 8 C5 9.32 5 10.64 5 12 C0.02368421 7.18421053 0.02368421 7.18421053 -0.0625 2.875 C-0.041875 1.92625 -0.02125 0.9775 0 0 Z " fill="#C48DC2" transform="translate(91,5)"/>
<path d="M0 0 C0.99 0 1.98 0 3 0 C3.66 2.31 4.32 4.62 5 7 C5.66 7 6.32 7 7 7 C7 7.99 7 8.98 7 10 C4.33246269 9.63206382 3.18001672 9.18001672 1.25 7.25 C-0.21079991 4.62056017 -0.24687966 2.9625559 0 0 Z " fill="#AE62AB" transform="translate(1,78)"/>
<path d="M0 0 C1.65 0.33 3.3 0.66 5 1 C5 2.65 5 4.3 5 6 C4.01 6 3.02 6 2 6 C2 6.66 2 7.32 2 8 C1.01 8 0.02 8 -1 8 C-0.67 5.36 -0.34 2.72 0 0 Z " fill="#983695" transform="translate(63,49)"/>
<path d="M0 0 C0.99 0.33 1.98 0.66 3 1 C3 1.99 3 2.98 3 4 C2.34 4 1.68 4 1 4 C1 5.32 1 6.64 1 8 C-0.9375 8.5625 -0.9375 8.5625 -3 9 C-4 8 -4 8 -4.0625 5.4375 C-4.041875 4.633125 -4.02125 3.82875 -4 3 C-2.68 3.33 -1.36 3.66 0 4 C0 2.68 0 1.36 0 0 Z " fill="#A753A4" transform="translate(53,54)"/>
<path d="M0 0 C1.98 0 3.96 0 6 0 C6.33 1.32 6.66 2.64 7 4 C5.02 4.66 3.04 5.32 1 6 C0.34 5.01 -0.32 4.02 -1 3 C-0.67 2.01 -0.34 1.02 0 0 Z " fill="#9E429B" transform="translate(126,38)"/>
<path d="M0 0 C1.65 0 3.3 0 5 0 C5.33 1.65 5.66 3.3 6 5 C4.34385343 5.38218767 2.67542976 5.71395102 1 6 C0 5 0 5 -0.0625 2.4375 C-0.041875 1.633125 -0.02125 0.82875 0 0 Z " fill="#9A3B97" transform="translate(103,65)"/>
<path d="M0 0 C1.32 0 2.64 0 4 0 C4 1.98 4 3.96 4 6 C2.02 6 0.04 6 -2 6 C-1.125 1.125 -1.125 1.125 0 0 Z " fill="#942D90" transform="translate(39,41)"/>
<path d="M0 0 C0.99 0 1.98 0 3 0 C3 9 3 9 1 12 C1 11.01 1 10.02 1 9 C0.34 9 -0.32 9 -1 9 C-1.07427838 5.65747276 -1.06546953 3.1964086 0 0 Z " fill="#D0A4CE" transform="translate(44,38)"/>
<path d="M0 0 C0.99 0.99 1.98 1.98 3 3 C1.824375 3.0928125 1.824375 3.0928125 0.625 3.1875 C-0.24125 3.455625 -1.1075 3.72375 -2 4 C-3.37466625 6.47636012 -3.37466625 6.47636012 -4 9 C-4.99 9 -5.98 9 -7 9 C-7.33 8.34 -7.66 7.68 -8 7 C-7.34 7 -6.68 7 -6 7 C-6 5.35 -6 3.7 -6 2 C-4.02 2 -2.04 2 0 2 C0 1.34 0 0.68 0 0 Z " fill="#D2A9D1" transform="translate(88,33)"/>
<path d="M0 0 C0.33 1.32 0.66 2.64 1 4 C2.32 4 3.64 4 5 4 C5 4.66 5 5.32 5 6 C0.99799622 7.60080151 -2.04556236 6.29279692 -6 5 C-6.33 6.32 -6.66 7.64 -7 9 C-7.33 7.02 -7.66 5.04 -8 3 C-7.34 2.67 -6.68 2.34 -6 2 C-6 2.66 -6 3.32 -6 4 C-4.02 4 -2.04 4 0 4 C0 2.68 0 1.36 0 0 Z " fill="#D6B1D5" transform="translate(40,58)"/>
<path d="M0 0 C2.64 0 5.28 0 8 0 C8 0.99 8 1.98 8 3 C6.68 3 5.36 3 4 3 C3.67 3.99 3.34 4.98 3 6 C2.01 6 1.02 6 0 6 C0 5.01 0 4.02 0 3 C-1.32 2.67 -2.64 2.34 -4 2 C-2.68 2 -1.36 2 0 2 C0 1.34 0 0.68 0 0 Z " fill="#D4ACD2" transform="translate(45,55)"/>
<path d="M0 0 C1.32 0 2.64 0 4 0 C4 1.98 4 3.96 4 6 C2.35 6 0.7 6 -1 6 C-1.042721 4.33388095 -1.04063832 2.66617115 -1 1 C-0.67 0.67 -0.34 0.34 0 0 Z " fill="#952F91" transform="translate(64,76)"/>
<path d="M0 0 C1.65 0 3.3 0 5 0 C5 1.65 5 3.3 5 5 C3.0625 5.5625 3.0625 5.5625 1 6 C0 5 0 5 -0.0625 2.4375 C-0.041875 1.633125 -0.02125 0.82875 0 0 Z " fill="#963392" transform="translate(34,63)"/>
<path d="M0 0 C0.66 0 1.32 0 2 0 C2.33 2.31 2.66 4.62 3 7 C1.68 7.33 0.36 7.66 -1 8 C-1 7.34 -1 6.68 -1 6 C-2.32 5.67 -3.64 5.34 -5 5 C-3.68 4.67 -2.36 4.34 -1 4 C-0.67 2.68 -0.34 1.36 0 0 Z " fill="#C58FC3" transform="translate(75,4)"/>
<path d="M0 0 C0 1.65 0 3.3 0 5 C0.99 5.33 1.98 5.66 3 6 C1.35 6.66 -0.3 7.32 -2 8 C-2.12375 7.071875 -2.12375 7.071875 -2.25 6.125 C-2.81258459 3.81562433 -2.81258459 3.81562433 -5.0625 2.75 C-5.701875 2.5025 -6.34125 2.255 -7 2 C-4.35261084 0.5393715 -3.10551666 0 0 0 Z M-2 2 C-1 4 -1 4 -1 4 Z " fill="#D6B1D5" transform="translate(70,46)"/>
<path d="M0 0 C0.66 0.33 1.32 0.66 2 1 C2 1.66 2 2.32 2 3 C2.66 3.33 3.32 3.66 4 4 C2.02 4 0.04 4 -2 4 C-2.33 4.99 -2.66 5.98 -3 7 C-4.32 6.34 -5.64 5.68 -7 5 C-4.69 3.35 -2.38 1.7 0 0 Z " fill="#CB9AC9" transform="translate(127,34)"/>
<path d="M0 0 C1.32 0 2.64 0 4 0 C4.33 1.65 4.66 3.3 5 5 C3.35 5 1.7 5 0 5 C-0.5625 3.0625 -0.5625 3.0625 -1 1 C-0.67 0.67 -0.34 0.34 0 0 Z " fill="#9B3B97" transform="translate(43,29)"/>
<path d="M0 0 C1.98 0.99 1.98 0.99 4 2 C4.33 1.34 4.66 0.68 5 0 C5.99 0 6.98 0 8 0 C6.75023244 3.65316671 6.32901247 4.78065836 3 7 C3 6.01 3 5.02 3 4 C2.01 4 1.02 4 0 4 C0 2.68 0 1.36 0 0 Z " fill="#CEA1CD" transform="translate(89,22)"/>
<path d="M0 0 C1.65 0 3.3 0 5 0 C5 1.32 5 2.64 5 4 C3.68 4.33 2.36 4.66 1 5 C0.67 3.35 0.34 1.7 0 0 Z " fill="#A550A2" transform="translate(38,75)"/>
<path d="M0 0 C0.33 1.65 0.66 3.3 1 5 C-1.3431213 4.74438677 -3.67843403 4.40729228 -6 4 C-6.33 3.34 -6.66 2.68 -7 2 C-4.35261084 0.5393715 -3.10551666 0 0 0 Z " fill="#BE81BC" transform="translate(122,59)"/>
<path d="M0 0 C1.65 0 3.3 0 5 0 C5 1.65 5 3.3 5 5 C3.35 5 1.7 5 0 5 C0 3.35 0 1.7 0 0 Z " fill="#932D8F" transform="translate(120,47)"/>
<path d="M0 0 C0.639375 0.2475 1.27875 0.495 1.9375 0.75 C2.2675 1.74 2.5975 2.73 2.9375 3.75 C0.9575 4.41 -1.0225 5.07 -3.0625 5.75 C-3.3925 4.1 -3.7225 2.45 -4.0625 0.75 C-2.0625 -0.25 -2.0625 -0.25 0 0 Z " fill="#C58FC3" transform="translate(91.0625,75.25)"/>
<path d="M0 0 C0.33 0.99 0.66 1.98 1 3 C1.99 3.33 2.98 3.66 4 4 C2.35 5.65 0.7 7.3 -1 9 C-1.99 8.67 -2.98 8.34 -4 8 C-3.34 8 -2.68 8 -2 8 C-1.7834375 7.13375 -1.7834375 7.13375 -1.5625 6.25 C-1.04166667 4.16666667 -0.52083333 2.08333333 0 0 Z " fill="#D0A5CF" transform="translate(56,54)"/>
<path d="M0 0 C0 0.33 0 0.66 0 1 C-2.31 1 -4.62 1 -7 1 C-7.28875 1.639375 -7.5775 2.27875 -7.875 2.9375 C-9 5 -9 5 -11 6 C-9.55369928 1.42004773 -9.55369928 1.42004773 -7.1875 -0.375 C-4.4719851 -1.1508614 -2.69201151 -0.74778098 0 0 Z " fill="#BEA0BE" transform="translate(53,98)"/>
<path d="M0 0 C0.33 0 0.66 0 1 0 C1.268125 0.94875 1.53625 1.8975 1.8125 2.875 C2.74986588 6.25267273 2.74986588 6.25267273 6 8 C5.67 8.99 5.34 9.98 5 11 C3 9.625 3 9.625 1 8 C1 7.34 1 6.68 1 6 C-0.32 5.67 -1.64 5.34 -3 5 C-2.01 5 -1.02 5 0 5 C0 3.35 0 1.7 0 0 Z " fill="#D6B2D5" transform="translate(22,58)"/>
<path d="M0 0 C2.125 0.9375 2.125 0.9375 4 2 C3.34 2 2.68 2 2 2 C1.67 3.32 1.34 4.64 1 6 C-0.98 5.34 -2.96 4.68 -5 4 C-4.01 3.67 -3.02 3.34 -2 3 C-2 2.34 -2 1.68 -2 1 C-1.34 0.67 -0.68 0.34 0 0 Z " fill="#BD81BB" transform="translate(116,52)"/>
<path d="M0 0 C0.33 1.65 0.66 3.3 1 5 C0.443125 4.525625 -0.11375 4.05125 -0.6875 3.5625 C-3.18346074 1.87604004 -5.0446237 1.41046893 -8 1 C-4.93251126 -0.86240388 -3.40254489 -1.2151946 0 0 Z " fill="#A14E9F" transform="translate(23,71)"/>
<path d="M0 0 C2.475 0.495 2.475 0.495 5 1 C4.67 2.32 4.34 3.64 4 5 C2.68 4.67 1.36 4.34 0 4 C0 2.68 0 1.36 0 0 Z " fill="#A752A4" transform="translate(30,35)"/>
<path d="M0 0 C0.33 1.32 0.66 2.64 1 4 C-3.75 6.875 -3.75 6.875 -6 8 C-6 6.35 -6 4.7 -6 3 C-5.195625 2.690625 -4.39125 2.38125 -3.5625 2.0625 C-1.10919595 1.23664655 -1.10919595 1.23664655 0 0 Z " fill="#BA78B8" transform="translate(84,5)"/>
<path d="M0 0 C2.0625 0.4375 2.0625 0.4375 4 1 C4 1.99 4 2.98 4 4 C2.68 4.33 1.36 4.66 0 5 C-0.5625 3.0625 -0.5625 3.0625 -1 1 C-0.67 0.67 -0.34 0.34 0 0 Z " fill="#C288BF" transform="translate(100,75)"/>
<path d="M0 0 C0.66 0 1.32 0 2 0 C1.67 0.99 1.34 1.98 1 3 C0.67 2.01 0.34 1.02 0 0 Z M-2 4 C0.475 4.99 0.475 4.99 3 6 C-0.75 8 -0.75 8 -3 8 C-2.67 6.68 -2.34 5.36 -2 4 Z " fill="#C7BDC9" transform="translate(12,70)"/>
<path d="M0 0 C1.65 0 3.3 0 5 0 C5 1.65 5 3.3 5 5 C3.68 5 2.36 5 1 5 C0.67 3.35 0.34 1.7 0 0 Z " fill="#AD60AA" transform="translate(80,15)"/>
<path d="M0 0 C0.33 1.32 0.66 2.64 1 4 C2.32 4 3.64 4 5 4 C5 4.66 5 5.32 5 6 C1.85375007 6.26218749 0.38162983 6.24754367 -2.3125 4.5 C-2.869375 4.005 -3.42625 3.51 -4 3 C-2.68 2.67 -1.36 2.34 0 2 C0 1.34 0 0.68 0 0 Z " fill="#DDBEDC" transform="translate(49,14)"/>
<path d="M0 0 C0.33 1.32 0.66 2.64 1 4 C2.32 4.33 3.64 4.66 5 5 C3.68 5 2.36 5 1 5 C1 5.66 1 6.32 1 7 C-0.32 6.67 -1.64 6.34 -3 6 C-2.34 5.34 -1.68 4.68 -1 4 C-1 3.01 -1 2.02 -1 1 C-0.67 0.67 -0.34 0.34 0 0 Z " fill="#CD9FCC" transform="translate(61,5)"/>
<path d="M0 0 C-2.97 2.475 -2.97 2.475 -6 5 C-6.66 4.67 -7.32 4.34 -8 4 C-7.67 2.68 -7.34 1.36 -7 0 C-3.98968256 -0.93423645 -3.13349732 -1.04449911 0 0 Z " fill="#CC9BCA" transform="translate(73,2)"/>
<path d="M0 0 C1.98 0 3.96 0 6 0 C6 1.65 6 3.3 6 5 C5.67 3.68 5.34 2.36 5 1 C4.34 1 3.68 1 3 1 C3 1.99 3 2.98 3 4 C2.01 4 1.02 4 0 4 C0 2.68 0 1.36 0 0 Z " fill="#BB7BB9" transform="translate(54,85)"/>
<path d="M0 0 C6.875 0.875 6.875 0.875 8 2 C8.14115161 4.67058851 8.04247107 7.32432238 8 10 C7.67 10 7.34 10 7 10 C6.6596875 8.329375 6.6596875 8.329375 6.3125 6.625 C5.39376342 2.83961627 5.39376342 2.83961627 2.375 1.5625 C1.59125 1.376875 0.8075 1.19125 0 1 C0 0.67 0 0.34 0 0 Z " fill="#B690B6" transform="translate(13,75)"/>
<path d="M0 0 C0.66 0.33 1.32 0.66 2 1 C1.67 3.31 1.34 5.62 1 8 C0.34 8 -0.32 8 -1 8 C-1 7.34 -1 6.68 -1 6 C-1.66 6 -2.32 6 -3 6 C-3 5.34 -3 4.68 -3 4 C-2.34 3.67 -1.68 3.34 -1 3 C-0.67 2.01 -0.34 1.02 0 0 Z " fill="#BF84BD" transform="translate(20,49)"/>
<path d="M0 0 C2.475 0.495 2.475 0.495 5 1 C5 1.99 5 2.98 5 4 C3.35 4 1.7 4 0 4 C0 2.68 0 1.36 0 0 Z " fill="#973493" transform="translate(24,43)"/>
<path d="M0 0 C2.475 0.495 2.475 0.495 5 1 C4.67 1.99 4.34 2.98 4 4 C2.68 4 1.36 4 0 4 C0 2.68 0 1.36 0 0 Z " fill="#BB7AB8" transform="translate(81,84)"/>
<path d="M0 0 C1.32 0 2.64 0 4 0 C4.33 1.65 4.66 3.3 5 5 C3.35 4.67 1.7 4.34 0 4 C0 2.68 0 1.36 0 0 Z " fill="#963293" transform="translate(41,58)"/>
<path d="M0 0 C1.32 0.33 2.64 0.66 4 1 C4 1.66 4 2.32 4 3 C4.99 3.33 5.98 3.66 7 4 C4.69 4 2.38 4 0 4 C0 2.68 0 1.36 0 0 Z " fill="#A756A5" transform="translate(62,5)"/>
<path d="M0 0 C0.99 0.33 1.98 0.66 3 1 C2.34 3.31 1.68 5.62 1 8 C-1 5 -1 5 -0.625 2.3125 C-0.41875 1.549375 -0.2125 0.78625 0 0 Z " fill="#C38CC1" transform="translate(28,76)"/>
<path d="M0 0 C1.32 0 2.64 0 4 0 C4.33 1.32 4.66 2.64 5 4 C3.35 4 1.7 4 0 4 C0 2.68 0 1.36 0 0 Z " fill="#9D4099" transform="translate(34,49)"/>
<path d="M0 0 C0.99 0.33 1.98 0.66 3 1 C2.34 2.32 1.68 3.64 1 5 C-0.32 4.67 -1.64 4.34 -3 4 C-2.01 2.68 -1.02 1.36 0 0 Z " fill="#D8B4D7" transform="translate(79,42)"/>
<path d="M0 0 C1.32 0 2.64 0 4 0 C3.67 1.32 3.34 2.64 3 4 C1.68 3.67 0.36 3.34 -1 3 C-0.67 2.01 -0.34 1.02 0 0 Z " fill="#B977B7" transform="translate(129,29)"/>
<path d="M0 0 C1.8125 1.4375 1.8125 1.4375 3 3 C2.34 3.66 1.68 4.32 1 5 C1 4.34 1 3.68 1 3 C-0.65 3.33 -2.3 3.66 -4 4 C-4.33 3.01 -4.66 2.02 -5 1 C-2.6875 0.3125 -2.6875 0.3125 0 0 Z " fill="#E4CDE4" transform="translate(46,26)"/>
<path d="M0 0 C1.32 0.33 2.64 0.66 4 1 C3.01 1.99 2.02 2.98 1 4 C0.67 2.68 0.34 1.36 0 0 Z " fill="#C287BF" transform="translate(87,83)"/>
<path d="M0 0 C0.99 0 1.98 0 3 0 C2.67 0.99 2.34 1.98 2 3 C1.01 2.67 0.02 2.34 -1 2 C-0.67 1.34 -0.34 0.68 0 0 Z " fill="#D2A8D0" transform="translate(105,74)"/>
<path d="M0 0 C0.66 0 1.32 0 2 0 C2 1.32 2 2.64 2 4 C1.34 4 0.68 4 0 4 C0 2.68 0 1.36 0 0 Z " fill="#B064AD" transform="translate(132,33)"/>
<path d="M0 0 C0.66 0.66 1.32 1.32 2 2 C1.34 2 0.68 2 0 2 C0 1.34 0 0.68 0 0 Z " fill="#EFE5F0" transform="translate(28,69)"/>
<path d="M0 0 C0.66 0 1.32 0 2 0 C1.67 0.66 1.34 1.32 1 2 C0.67 1.34 0.34 0.68 0 0 Z " fill="#E1C7E1" transform="translate(47,25)"/>
<path d="" fill="#F1E5F1" transform="translate(0,0)"/>
</svg>
